%TF.GenerationSoftware,KiCad,Pcbnew,10.0.6*%
%TF.CreationDate,2026-10-09T11:19:04-06:00*%
%TF.ProjectId,STM32H7A3RGT6_Devboard,53544d33-3248-4374-9133-524754365f44,rev?*%
%TF.SameCoordinates,Original*%
%TF.FileFunction,Legend,Bot*%
%TF.FilePolarity,Positive*%
%FSLAX46Y46*%
G04 Gerber Fmt 4.6, Leading zero omitted, Abs format (unit mm)*
G04 Created by KiCad (PCBNEW 10.0.6) date 2026-10-09 11:19:04*
%MOMM*%
%LPD*%
G01*
G04 APERTURE LIST*
%ADD10C,0.150000*%
%ADD11C,0.120000*%
G04 APERTURE END LIST*
D10*
X136710357Y-103649580D02*
X136757976Y-103697200D01*
X136757976Y-103697200D02*
X136900833Y-103744819D01*
X136900833Y-103744819D02*
X136996071Y-103744819D01*
X136996071Y-103744819D02*
X137138928Y-103697200D01*
X137138928Y-103697200D02*
X137234166Y-103601961D01*
X137234166Y-103601961D02*
X137281785Y-103506723D01*
X137281785Y-103506723D02*
X137329404Y-103316247D01*
X137329404Y-103316247D02*
X137329404Y-103173390D01*
X137329404Y-103173390D02*
X137281785Y-102982914D01*
X137281785Y-102982914D02*
X137234166Y-102887676D01*
X137234166Y-102887676D02*
X137138928Y-102792438D01*
X137138928Y-102792438D02*
X136996071Y-102744819D01*
X136996071Y-102744819D02*
X136900833Y-102744819D01*
X136900833Y-102744819D02*
X136757976Y-102792438D01*
X136757976Y-102792438D02*
X136710357Y-102840057D01*
X135757976Y-103744819D02*
X136329404Y-103744819D01*
X136043690Y-103744819D02*
X136043690Y-102744819D01*
X136043690Y-102744819D02*
X136138928Y-102887676D01*
X136138928Y-102887676D02*
X136234166Y-102982914D01*
X136234166Y-102982914D02*
X136329404Y-103030533D01*
X135138928Y-102744819D02*
X135043690Y-102744819D01*
X135043690Y-102744819D02*
X134948452Y-102792438D01*
X134948452Y-102792438D02*
X134900833Y-102840057D01*
X134900833Y-102840057D02*
X134853214Y-102935295D01*
X134853214Y-102935295D02*
X134805595Y-103125771D01*
X134805595Y-103125771D02*
X134805595Y-103363866D01*
X134805595Y-103363866D02*
X134853214Y-103554342D01*
X134853214Y-103554342D02*
X134900833Y-103649580D01*
X134900833Y-103649580D02*
X134948452Y-103697200D01*
X134948452Y-103697200D02*
X135043690Y-103744819D01*
X135043690Y-103744819D02*
X135138928Y-103744819D01*
X135138928Y-103744819D02*
X135234166Y-103697200D01*
X135234166Y-103697200D02*
X135281785Y-103649580D01*
X135281785Y-103649580D02*
X135329404Y-103554342D01*
X135329404Y-103554342D02*
X135377023Y-103363866D01*
X135377023Y-103363866D02*
X135377023Y-103125771D01*
X135377023Y-103125771D02*
X135329404Y-102935295D01*
X135329404Y-102935295D02*
X135281785Y-102840057D01*
X135281785Y-102840057D02*
X135234166Y-102792438D01*
X135234166Y-102792438D02*
X135138928Y-102744819D01*
X95374819Y-111066666D02*
X96089104Y-111066666D01*
X96089104Y-111066666D02*
X96231961Y-111019047D01*
X96231961Y-111019047D02*
X96327200Y-110923809D01*
X96327200Y-110923809D02*
X96374819Y-110780952D01*
X96374819Y-110780952D02*
X96374819Y-110685714D01*
X95708152Y-111971428D02*
X96374819Y-111971428D01*
X95327200Y-111733333D02*
X96041485Y-111495238D01*
X96041485Y-111495238D02*
X96041485Y-112114285D01*
X95374819Y-88266666D02*
X96089104Y-88266666D01*
X96089104Y-88266666D02*
X96231961Y-88219047D01*
X96231961Y-88219047D02*
X96327200Y-88123809D01*
X96327200Y-88123809D02*
X96374819Y-87980952D01*
X96374819Y-87980952D02*
X96374819Y-87885714D01*
X95374819Y-88647619D02*
X95374819Y-89266666D01*
X95374819Y-89266666D02*
X95755771Y-88933333D01*
X95755771Y-88933333D02*
X95755771Y-89076190D01*
X95755771Y-89076190D02*
X95803390Y-89171428D01*
X95803390Y-89171428D02*
X95851009Y-89219047D01*
X95851009Y-89219047D02*
X95946247Y-89266666D01*
X95946247Y-89266666D02*
X96184342Y-89266666D01*
X96184342Y-89266666D02*
X96279580Y-89219047D01*
X96279580Y-89219047D02*
X96327200Y-89171428D01*
X96327200Y-89171428D02*
X96374819Y-89076190D01*
X96374819Y-89076190D02*
X96374819Y-88790476D01*
X96374819Y-88790476D02*
X96327200Y-88695238D01*
X96327200Y-88695238D02*
X96279580Y-88647619D01*
%TO.C,C10*%
D11*
X136183335Y-104090000D02*
X135951665Y-104090000D01*
X136183335Y-104810000D02*
X135951665Y-104810000D01*
%TO.C,J4*%
X96920000Y-110020000D02*
X96920000Y-111400000D01*
X98300000Y-110020000D02*
X96920000Y-110020000D01*
X99570000Y-110020000D02*
X99570000Y-112780000D01*
X99570000Y-110020000D02*
X160640000Y-110020000D01*
X99570000Y-112780000D02*
X160640000Y-112780000D01*
X160640000Y-110020000D02*
X160640000Y-112780000D01*
%TO.C,J3*%
X96920000Y-87220000D02*
X96920000Y-88600000D01*
X98300000Y-87220000D02*
X96920000Y-87220000D01*
X99570000Y-87220000D02*
X99570000Y-89980000D01*
X99570000Y-87220000D02*
X160640000Y-87220000D01*
X99570000Y-89980000D02*
X160640000Y-89980000D01*
X160640000Y-87220000D02*
X160640000Y-89980000D01*
%TD*%
M02*
