M48
; DRILL file KiCad 10.0.6 date 2026-10-09T11:19:00
; FORMAT={-:-/ absolute / metric / decimal}
; #@! TF.CreationDate,2026-10-09T11:19:00-06:00
; #@! TF.GenerationSoftware,Kicad,Pcbnew,10.0.6
; #@! TF.FileFunction,Plated,1,2,PTH
FMAT,2
METRIC
; #@! TA.AperFunction,Plated,PTH,ViaDrill
T1C0.400
; #@! TA.AperFunction,Plated,PTH,ComponentDrill
T2C0.600
; #@! TA.AperFunction,Plated,PTH,ComponentDrill
T3C1.000
%
G90
G05
T1
X98.6Y-92.4
X99.9Y-98.5
X99.9Y-101.6
X100.0Y-100.0
X100.0Y-108.9
X101.8Y-98.5
X101.8Y-101.6
X102.1Y-89.7
X102.1Y-91.3
X102.1Y-92.8
X102.2Y-110.0
X102.3Y-108.3
X103.822Y-105.773
X104.4Y-91.0
X104.4Y-102.0
X104.6Y-108.0
X104.6Y-110.0
X105.1Y-94.0
X105.9Y-96.2
X106.3Y-102.0
X107.5Y-98.0
X107.9Y-102.0
X107.9Y-103.4
X108.0Y-94.5
X108.2Y-108.0
X109.1Y-98.8
X110.0Y-105.0
X110.1Y-103.2
X111.6Y-95.8
X112.7Y-98.5
X113.0Y-103.0
X113.8Y-97.4
X115.5Y-97.4
X119.5Y-97.2
X121.0Y-99.4
X121.1Y-101.4
X122.1Y-99.7
X122.6Y-97.2
X124.9Y-99.5
X125.1Y-106.975
X125.216Y-98.401
X125.5Y-109.3
X126.1Y-106.7
X126.7Y-107.4
X128.5Y-96.1
X129.196Y-105.4
X129.6Y-108.8
X129.8Y-90.2
X130.0Y-91.8
X130.0Y-100.0
X130.0Y-106.0
X130.3Y-94.4
X131.1Y-95.1
X132.4Y-90.9
X132.5Y-109.1
X132.8Y-92.6
X132.8Y-103.1
X133.4Y-102.3
X133.6Y-99.2
X134.0Y-101.6
X134.797Y-98.5
X134.9Y-101.1
X137.5Y-103.95
X137.6Y-95.9
X138.006Y-98.744
X138.5Y-103.95
X138.7Y-100.5
X138.9Y-96.4
X139.2Y-109.3
X139.3Y-103.3
X139.9Y-96.8
X141.6Y-108.1
X142.1Y-95.6
X142.3Y-104.8
X142.4Y-98.4
X144.1Y-98.4
X147.8Y-95.8
X148.1Y-98.4
X148.5Y-101.4
X150.8Y-98.6
X151.2Y-92.85
X152.6Y-105.8
X153.35Y-90.65
X155.4Y-94.6
X159.3Y-90.4
X159.3Y-100.0
X159.3Y-109.6
T3
X98.3Y-88.6
X98.3Y-111.4
X100.84Y-88.6
X100.84Y-111.4
X103.38Y-88.6
X103.38Y-111.4
X105.92Y-88.6
X105.92Y-111.4
X108.46Y-88.6
X108.46Y-111.4
X111.0Y-88.6
X111.0Y-111.4
X111.98Y-100.4
X113.54Y-88.6
X113.54Y-111.4
X114.52Y-100.4
X116.08Y-88.6
X116.08Y-111.4
X117.06Y-100.4
X118.62Y-88.6
X118.62Y-111.4
X119.6Y-100.4
X121.16Y-88.6
X121.16Y-111.4
X123.7Y-88.6
X123.7Y-111.4
X126.24Y-88.6
X126.24Y-111.4
X128.78Y-88.6
X128.78Y-111.4
X131.32Y-88.6
X131.32Y-111.4
X133.86Y-88.6
X133.86Y-111.4
X136.4Y-88.6
X136.4Y-111.4
X138.94Y-88.6
X138.94Y-111.4
X141.48Y-88.6
X141.48Y-111.4
X144.02Y-88.6
X144.02Y-111.4
X146.56Y-88.6
X146.56Y-111.4
X149.1Y-88.6
X149.1Y-111.4
X151.64Y-88.6
X151.64Y-111.4
X154.18Y-88.6
X154.18Y-111.4
X156.72Y-88.6
X156.72Y-111.4
X159.26Y-88.6
X159.26Y-111.4
T2
G00X97.825Y-95.675
M15
G01X99.025Y-95.675
M16
G05
G00X97.83Y-104.32
M15
G01X99.03Y-104.32
M16
G05
G00X102.035Y-95.67
M15
G01X102.835Y-95.67
M16
G05
G00X102.035Y-104.32
M15
G01X102.835Y-104.32
M16
G05
M30
