%TF.GenerationSoftware,KiCad,Pcbnew,10.0.6*%
%TF.CreationDate,2026-10-09T11:19:04-06:00*%
%TF.ProjectId,STM32H7A3RGT6_Devboard,53544d33-3248-4374-9133-524754365f44,rev?*%
%TF.SameCoordinates,Original*%
%TF.FileFunction,Copper,L2,Bot*%
%TF.FilePolarity,Positive*%
%FSLAX46Y46*%
G04 Gerber Fmt 4.6, Leading zero omitted, Abs format (unit mm)*
G04 Created by KiCad (PCBNEW 10.0.6) date 2026-10-09 11:19:04*
%MOMM*%
%LPD*%
G01*
G04 APERTURE LIST*
G04 Aperture macros list*
%AMRoundRect*
0 Rectangle with rounded corners*
0 $1 Rounding radius*
0 $2 $3 $4 $5 $6 $7 $8 $9 X,Y pos of 4 corners*
0 Add a 4 corners polygon primitive as box body*
4,1,4,$2,$3,$4,$5,$6,$7,$8,$9,$2,$3,0*
0 Add four circle primitives for the rounded corners*
1,1,$1+$1,$2,$3*
1,1,$1+$1,$4,$5*
1,1,$1+$1,$6,$7*
1,1,$1+$1,$8,$9*
0 Add four rect primitives between the rounded corners*
20,1,$1+$1,$2,$3,$4,$5,0*
20,1,$1+$1,$4,$5,$6,$7,0*
20,1,$1+$1,$6,$7,$8,$9,0*
20,1,$1+$1,$8,$9,$2,$3,0*%
G04 Aperture macros list end*
%TA.AperFunction,ComponentPad*%
%ADD10R,1.700000X1.700000*%
%TD*%
%TA.AperFunction,ComponentPad*%
%ADD11C,1.700000*%
%TD*%
%TA.AperFunction,ComponentPad*%
%ADD12O,1.800000X1.000000*%
%TD*%
%TA.AperFunction,ComponentPad*%
%ADD13O,2.200000X1.000000*%
%TD*%
%TA.AperFunction,SMDPad,CuDef*%
%ADD14RoundRect,0.155000X0.212500X0.155000X-0.212500X0.155000X-0.212500X-0.155000X0.212500X-0.155000X0*%
%TD*%
%TA.AperFunction,ViaPad*%
%ADD15C,0.700000*%
%TD*%
%TA.AperFunction,Conductor*%
%ADD16C,0.300000*%
%TD*%
%TA.AperFunction,Conductor*%
%ADD17C,0.500000*%
%TD*%
G04 APERTURE END LIST*
D10*
%TO.P,J2,1,Pin_1_1*%
%TO.N,GND*%
X111980000Y-100400000D03*
D11*
%TO.P,J2,2,Pin_2_2*%
%TO.N,/SWCLK*%
X114520000Y-100400000D03*
%TO.P,J2,3,Pin_3_3*%
%TO.N,/SWDIO*%
X117060000Y-100400000D03*
%TO.P,J2,4,Pin_4_4*%
%TO.N,+3V3*%
X119600000Y-100400000D03*
%TD*%
D12*
%TO.P,J1,S1,SHIELD_S1*%
%TO.N,GND*%
X102435000Y-95670000D03*
D13*
X98425000Y-95675000D03*
D12*
X102435000Y-104320000D03*
D13*
X98430000Y-104320000D03*
%TD*%
D14*
%TO.P,C10,1*%
%TO.N,+3V3*%
X136635000Y-104450000D03*
%TO.P,C10,2*%
%TO.N,GND*%
X135500000Y-104450000D03*
%TD*%
D10*
%TO.P,J4,1,Pin_1_1*%
%TO.N,GND*%
X98300000Y-111400000D03*
D11*
%TO.P,J4,2,Pin_2_2*%
%TO.N,VBUS*%
X100840000Y-111400000D03*
%TO.P,J4,3,Pin_3_3*%
%TO.N,+3V3*%
X103380000Y-111400000D03*
%TO.P,J4,4,Pin_4_4*%
%TO.N,/PA15*%
X105920000Y-111400000D03*
%TO.P,J4,5,Pin_5_5*%
%TO.N,/PC10*%
X108460000Y-111400000D03*
%TO.P,J4,6,Pin_6_6*%
%TO.N,/PC11*%
X111000000Y-111400000D03*
%TO.P,J4,7,Pin_7_7*%
%TO.N,/PC12*%
X113540000Y-111400000D03*
%TO.P,J4,8,Pin_8_8*%
%TO.N,/PD2*%
X116080000Y-111400000D03*
%TO.P,J4,9,Pin_9_9*%
%TO.N,/PB3*%
X118620000Y-111400000D03*
%TO.P,J4,10,Pin_10_10*%
%TO.N,/PB4*%
X121160000Y-111400000D03*
%TO.P,J4,11,Pin_11_11*%
%TO.N,/PB5*%
X123700000Y-111400000D03*
%TO.P,J4,12,Pin_12_12*%
%TO.N,/PB6*%
X126240000Y-111400000D03*
%TO.P,J4,13,Pin_13_13*%
%TO.N,/PB7*%
X128780000Y-111400000D03*
%TO.P,J4,14,Pin_14_14*%
%TO.N,/PB8*%
X131320000Y-111400000D03*
%TO.P,J4,15,Pin_15_15*%
%TO.N,/PC13*%
X133860000Y-111400000D03*
%TO.P,J4,16,Pin_16_16*%
%TO.N,/PC14*%
X136400000Y-111400000D03*
%TO.P,J4,17,Pin_17_17*%
%TO.N,/PC15*%
X138940000Y-111400000D03*
%TO.P,J4,18,Pin_18_18*%
%TO.N,/PC0*%
X141480000Y-111400000D03*
%TO.P,J4,19,Pin_19_19*%
%TO.N,/PC1*%
X144020000Y-111400000D03*
%TO.P,J4,20,Pin_20_20*%
%TO.N,/PC2*%
X146560000Y-111400000D03*
%TO.P,J4,21,Pin_21_21*%
%TO.N,/PC3*%
X149100000Y-111400000D03*
%TO.P,J4,22,Pin_22_22*%
%TO.N,/PA0*%
X151640000Y-111400000D03*
%TO.P,J4,23,Pin_23_23*%
%TO.N,/PA1*%
X154180000Y-111400000D03*
%TO.P,J4,24,Pin_24_24*%
%TO.N,/PA2*%
X156720000Y-111400000D03*
D10*
%TO.P,J4,25,Pin_25_25*%
%TO.N,GND*%
X159260000Y-111400000D03*
%TD*%
%TO.P,J3,1,Pin_1_1*%
%TO.N,GND*%
X98300000Y-88600000D03*
D11*
%TO.P,J3,2,Pin_2_2*%
%TO.N,VBUS*%
X100840000Y-88600000D03*
%TO.P,J3,3,Pin_3_3*%
%TO.N,+3V3*%
X103380000Y-88600000D03*
%TO.P,J3,4,Pin_4_4*%
%TO.N,/PA10*%
X105920000Y-88600000D03*
%TO.P,J3,5,Pin_5_5*%
%TO.N,/PA9*%
X108460000Y-88600000D03*
%TO.P,J3,6,Pin_6_6*%
%TO.N,/PA8*%
X111000000Y-88600000D03*
%TO.P,J3,7,Pin_7_7*%
%TO.N,/PC9*%
X113540000Y-88600000D03*
%TO.P,J3,8,Pin_8_8*%
%TO.N,/PC7*%
X116080000Y-88600000D03*
%TO.P,J3,9,Pin_9_9*%
%TO.N,/PC6*%
X118620000Y-88600000D03*
%TO.P,J3,10,Pin_10_10*%
%TO.N,/PB15*%
X121160000Y-88600000D03*
%TO.P,J3,11,Pin_11_11*%
%TO.N,/PB14*%
X123700000Y-88600000D03*
%TO.P,J3,12,Pin_12_12*%
%TO.N,/PB13*%
X126240000Y-88600000D03*
%TO.P,J3,13,Pin_13_13*%
%TO.N,/PB12*%
X128780000Y-88600000D03*
%TO.P,J3,14,Pin_14_14*%
%TO.N,/PB10*%
X131320000Y-88600000D03*
%TO.P,J3,15,Pin_15_15*%
%TO.N,/PB2*%
X133860000Y-88600000D03*
%TO.P,J3,16,Pin_16_16*%
%TO.N,/PB1*%
X136400000Y-88600000D03*
%TO.P,J3,17,Pin_17_17*%
%TO.N,/PB0*%
X138940000Y-88600000D03*
%TO.P,J3,18,Pin_18_18*%
%TO.N,/PC5*%
X141480000Y-88600000D03*
%TO.P,J3,19,Pin_19_19*%
%TO.N,/PC4*%
X144020000Y-88600000D03*
%TO.P,J3,20,Pin_20_20*%
%TO.N,/PA7*%
X146560000Y-88600000D03*
%TO.P,J3,21,Pin_21_21*%
%TO.N,/PA6*%
X149100000Y-88600000D03*
%TO.P,J3,22,Pin_22_22*%
%TO.N,/PA5*%
X151640000Y-88600000D03*
%TO.P,J3,23,Pin_23_23*%
%TO.N,/PA4*%
X154180000Y-88600000D03*
%TO.P,J3,24,Pin_24_24*%
%TO.N,/PA3*%
X156720000Y-88600000D03*
%TO.P,J3,25,Pin_25_25*%
%TO.N,+3V3*%
X159260000Y-88600000D03*
%TD*%
D15*
%TO.N,/BOOT0*%
X126100000Y-106700000D03*
X110000000Y-105000000D03*
%TO.N,GND*%
X138005880Y-98743979D03*
X105100000Y-94000000D03*
X105900000Y-96200000D03*
X102100000Y-91300000D03*
X138500000Y-103950000D03*
X102200000Y-110000000D03*
X129196194Y-105400000D03*
X148500000Y-101400000D03*
X124900000Y-99500000D03*
X102300000Y-108300000D03*
X151200000Y-92850000D03*
X119500000Y-97200000D03*
X129800000Y-90200000D03*
X142400000Y-98400000D03*
X132500000Y-109100000D03*
X147800000Y-95800000D03*
X133600000Y-99200000D03*
X141600000Y-108100000D03*
X121100000Y-101400000D03*
X104600000Y-110000000D03*
X100000000Y-108900000D03*
X159300000Y-109600000D03*
X132400000Y-90900000D03*
X121000000Y-99400000D03*
X144100000Y-98400000D03*
X102100000Y-92800000D03*
X139900000Y-96800000D03*
X102100000Y-89700000D03*
X115500000Y-97400000D03*
X132800000Y-92600000D03*
X108000000Y-94500000D03*
X108200000Y-108000000D03*
X107500000Y-98000000D03*
X134000000Y-101600000D03*
X129600000Y-108800000D03*
X125500000Y-109300000D03*
X106300000Y-102000000D03*
X113800000Y-97400000D03*
X155400000Y-94600000D03*
X112700000Y-98500000D03*
X152600000Y-105800000D03*
X104600000Y-108000000D03*
X107900000Y-102000000D03*
X159300000Y-100000000D03*
X128500000Y-96100000D03*
X110100000Y-103200000D03*
X130300000Y-94400000D03*
X159300000Y-90400000D03*
X153350000Y-90650000D03*
X130000000Y-100000000D03*
X113000000Y-103000000D03*
X139200000Y-109300000D03*
X104400000Y-91000000D03*
X100000000Y-100000000D03*
X109100000Y-98800000D03*
X142100000Y-95600000D03*
X104400000Y-102000000D03*
X98600000Y-92400000D03*
X150800000Y-98600000D03*
%TO.N,/NRST*%
X132800000Y-103100000D03*
X138700000Y-100500000D03*
%TO.N,+3V3*%
X148100000Y-98400000D03*
X130000000Y-91800000D03*
X130000000Y-106000000D03*
X138900000Y-96400000D03*
X122100000Y-99700000D03*
X137500000Y-103950000D03*
X107900000Y-103400000D03*
X111600000Y-95800000D03*
X103822465Y-105772877D03*
%TO.N,/PC2*%
X142300000Y-104800000D03*
X133400000Y-102300000D03*
%TO.N,/PA0*%
X139300000Y-103300000D03*
X134900000Y-101100000D03*
%TO.N,/PA4*%
X137600000Y-95900000D03*
X134797349Y-98500480D03*
%TO.N,Net-(C1-Pad1)*%
X131100000Y-95100000D03*
X122600000Y-97200000D03*
%TO.N,/SWDIO*%
X125216409Y-98401268D03*
%TO.N,/PB7*%
X125100000Y-106975305D03*
%TO.N,/PB8*%
X126700000Y-107400000D03*
%TO.N,/CC1*%
X101800000Y-98500000D03*
X99900000Y-98500000D03*
%TO.N,/CC2*%
X99900000Y-101600000D03*
X101800000Y-101600000D03*
%TD*%
%TO.N,/BOOT0*%
D16*
X113900000Y-106200000D02*
X125600000Y-106200000D01*
X125600000Y-106200000D02*
X126100000Y-106700000D01*
X110000000Y-105000000D02*
X112700000Y-105000000D01*
X112700000Y-105000000D02*
X113900000Y-106200000D01*
%TO.N,/NRST*%
X132700000Y-101202944D02*
X134002944Y-99900000D01*
X138100000Y-99900000D02*
X138700000Y-100500000D01*
X134002944Y-99900000D02*
X138100000Y-99900000D01*
X132800000Y-103100000D02*
X132700000Y-103000000D01*
X132700000Y-103000000D02*
X132700000Y-101202944D01*
%TO.N,+3V3*%
D17*
X103500000Y-92800000D02*
X103500000Y-88720000D01*
X102600000Y-97600000D02*
X100900000Y-95900000D01*
X119600000Y-100400000D02*
X117900000Y-102100000D01*
X137320465Y-103950000D02*
X135270465Y-106000000D01*
X137500000Y-103950000D02*
X137320465Y-103950000D01*
X129800000Y-106200000D02*
X130000000Y-106000000D01*
X100900000Y-95400000D02*
X103500000Y-92800000D01*
X122100000Y-100300000D02*
X128000000Y-106200000D01*
X135270465Y-106000000D02*
X130000000Y-106000000D01*
X128000000Y-106200000D02*
X129800000Y-106200000D01*
X138900000Y-96000000D02*
X138900000Y-96400000D01*
X100900000Y-95900000D02*
X100900000Y-95400000D01*
X149475000Y-98400000D02*
X148100000Y-98400000D01*
X130000000Y-91800000D02*
X115600000Y-91800000D01*
X109200000Y-102100000D02*
X107900000Y-103400000D01*
X100900000Y-104111497D02*
X102600000Y-102411497D01*
X102600000Y-102411497D02*
X102600000Y-97600000D01*
X156075000Y-91800000D02*
X149475000Y-98400000D01*
X115600000Y-91800000D02*
X111600000Y-95800000D01*
X103822465Y-105772877D02*
X102144374Y-105772877D01*
X138900000Y-96068629D02*
X138900000Y-96400000D01*
X156075000Y-91800000D02*
X159260000Y-88615000D01*
X130000000Y-91800000D02*
X134700000Y-91800000D01*
X122100000Y-99700000D02*
X122100000Y-100300000D01*
X134700000Y-91800000D02*
X156075000Y-91800000D01*
X159260000Y-88615000D02*
X159260000Y-88600000D01*
X103500000Y-88720000D02*
X103380000Y-88600000D01*
X134700000Y-91800000D02*
X138900000Y-96000000D01*
X117900000Y-102100000D02*
X109200000Y-102100000D01*
X102144374Y-105772877D02*
X100900000Y-104528503D01*
X100900000Y-104528503D02*
X100900000Y-104111497D01*
%TO.N,/PC2*%
D16*
X141789950Y-104800000D02*
X142300000Y-104800000D01*
X133300000Y-101310050D02*
X133300000Y-102200000D01*
X134210050Y-100400000D02*
X133300000Y-101310050D01*
X137389950Y-100400000D02*
X134210050Y-100400000D01*
X137389950Y-100400000D02*
X141789950Y-104800000D01*
X133300000Y-102200000D02*
X133400000Y-102300000D01*
%TO.N,/PA0*%
X134900000Y-101100000D02*
X137100000Y-101100000D01*
X137100000Y-101100000D02*
X139300000Y-103300000D01*
%TO.N,/PA4*%
X134999520Y-98500480D02*
X137600000Y-95900000D01*
X134797349Y-98500480D02*
X134999520Y-98500480D01*
%TO.N,Net-(C1-Pad1)*%
X122600000Y-97200000D02*
X129000000Y-97200000D01*
X129000000Y-97200000D02*
X131100000Y-95100000D01*
%TO.N,/SWDIO*%
X119058732Y-98401268D02*
X117060000Y-100400000D01*
X125216409Y-98401268D02*
X119058732Y-98401268D01*
%TO.N,/PB7*%
X125100000Y-106975305D02*
X125100000Y-107700000D01*
X125100000Y-107700000D02*
X128780000Y-111380000D01*
X128780000Y-111380000D02*
X128780000Y-111400000D01*
%TO.N,/PB8*%
X128900000Y-109700000D02*
X129620000Y-109700000D01*
X129620000Y-109700000D02*
X131320000Y-111400000D01*
X126700000Y-107500000D02*
X128900000Y-109700000D01*
X126700000Y-107400000D02*
X126700000Y-107500000D01*
%TO.N,/CC1*%
X99900000Y-98500000D02*
X101800000Y-98500000D01*
%TO.N,/CC2*%
X99900000Y-101600000D02*
X101800000Y-101600000D01*
%TD*%
%TA.AperFunction,Conductor*%
%TO.N,GND*%
G36*
X155486630Y-88610253D02*
G01*
X155544863Y-88648863D01*
X155572473Y-88709321D01*
X155597829Y-88869410D01*
X155653787Y-89041636D01*
X155653788Y-89041639D01*
X155687510Y-89107820D01*
X155728513Y-89188293D01*
X155736006Y-89202997D01*
X155842441Y-89349494D01*
X155842445Y-89349499D01*
X155970500Y-89477554D01*
X155970505Y-89477558D01*
X156080361Y-89557372D01*
X156117006Y-89583996D01*
X156221793Y-89637388D01*
X156278360Y-89666211D01*
X156278363Y-89666212D01*
X156357997Y-89692086D01*
X156450591Y-89722171D01*
X156533429Y-89735291D01*
X156629449Y-89750500D01*
X156629454Y-89750500D01*
X156810551Y-89750500D01*
X156938305Y-89730265D01*
X156989409Y-89722171D01*
X157068337Y-89696525D01*
X157138177Y-89694531D01*
X157198010Y-89730611D01*
X157228838Y-89793312D01*
X157220874Y-89862726D01*
X157194335Y-89902138D01*
X155883294Y-91213181D01*
X155821971Y-91246666D01*
X155795613Y-91249500D01*
X130384601Y-91249500D01*
X130317562Y-91229815D01*
X130315747Y-91228626D01*
X130308127Y-91223535D01*
X130308124Y-91223533D01*
X130308123Y-91223533D01*
X130189744Y-91174499D01*
X130189738Y-91174497D01*
X130064071Y-91149500D01*
X130064069Y-91149500D01*
X129935931Y-91149500D01*
X129935929Y-91149500D01*
X129810261Y-91174497D01*
X129810255Y-91174499D01*
X129691876Y-91223533D01*
X129691873Y-91223534D01*
X129691873Y-91223535D01*
X129684287Y-91228603D01*
X129617611Y-91249480D01*
X129615399Y-91249500D01*
X115527525Y-91249500D01*
X115422517Y-91277637D01*
X115387514Y-91287016D01*
X115261986Y-91359489D01*
X115261983Y-91359491D01*
X111482690Y-95138783D01*
X111421367Y-95172268D01*
X111419202Y-95172719D01*
X111410259Y-95174497D01*
X111410257Y-95174498D01*
X111291875Y-95223533D01*
X111291866Y-95223538D01*
X111185331Y-95294723D01*
X111185327Y-95294726D01*
X111094726Y-95385327D01*
X111094723Y-95385331D01*
X111023538Y-95491866D01*
X111023533Y-95491875D01*
X110974499Y-95610255D01*
X110974497Y-95610261D01*
X110949500Y-95735928D01*
X110949500Y-95735931D01*
X110949500Y-95864069D01*
X110949500Y-95864071D01*
X110949499Y-95864071D01*
X110974497Y-95989738D01*
X110974499Y-95989744D01*
X111023533Y-96108124D01*
X111023538Y-96108133D01*
X111094723Y-96214668D01*
X111094726Y-96214672D01*
X111185327Y-96305273D01*
X111185331Y-96305276D01*
X111291866Y-96376461D01*
X111291872Y-96376464D01*
X111291873Y-96376465D01*
X111410256Y-96425501D01*
X111410260Y-96425501D01*
X111410261Y-96425502D01*
X111535928Y-96450500D01*
X111535931Y-96450500D01*
X111664071Y-96450500D01*
X111748615Y-96433682D01*
X111789744Y-96425501D01*
X111908127Y-96376465D01*
X112014669Y-96305276D01*
X112105276Y-96214669D01*
X112176465Y-96108127D01*
X112225501Y-95989744D01*
X112227279Y-95980800D01*
X112259659Y-95918891D01*
X112261157Y-95917366D01*
X115791706Y-92386819D01*
X115853029Y-92353334D01*
X115879387Y-92350500D01*
X129615399Y-92350500D01*
X129682438Y-92370185D01*
X129684252Y-92371373D01*
X129691873Y-92376465D01*
X129810256Y-92425501D01*
X129810260Y-92425501D01*
X129810261Y-92425502D01*
X129935928Y-92450500D01*
X129935931Y-92450500D01*
X130064071Y-92450500D01*
X130161265Y-92431166D01*
X130189744Y-92425501D01*
X130308127Y-92376465D01*
X130315712Y-92371396D01*
X130382389Y-92350520D01*
X130384601Y-92350500D01*
X134420613Y-92350500D01*
X134487652Y-92370185D01*
X134508294Y-92386819D01*
X137276831Y-95155356D01*
X137310316Y-95216679D01*
X137305332Y-95286371D01*
X137263460Y-95342304D01*
X137258042Y-95346138D01*
X137185333Y-95394721D01*
X137185327Y-95394726D01*
X137094726Y-95485327D01*
X137094723Y-95485331D01*
X137023538Y-95591866D01*
X137023533Y-95591875D01*
X136974499Y-95710255D01*
X136974497Y-95710261D01*
X136949500Y-95835928D01*
X136949500Y-95862034D01*
X136929815Y-95929073D01*
X136913181Y-95949715D01*
X135034647Y-97828248D01*
X134973324Y-97861733D01*
X134922775Y-97862184D01*
X134861421Y-97849980D01*
X134861418Y-97849980D01*
X134733280Y-97849980D01*
X134733278Y-97849980D01*
X134607610Y-97874977D01*
X134607604Y-97874979D01*
X134489224Y-97924013D01*
X134489215Y-97924018D01*
X134382680Y-97995203D01*
X134382676Y-97995206D01*
X134292075Y-98085807D01*
X134292072Y-98085811D01*
X134220887Y-98192346D01*
X134220882Y-98192355D01*
X134171848Y-98310735D01*
X134171846Y-98310741D01*
X134146849Y-98436408D01*
X134146849Y-98436411D01*
X134146849Y-98564549D01*
X134146849Y-98564551D01*
X134146848Y-98564551D01*
X134171846Y-98690218D01*
X134171848Y-98690224D01*
X134220882Y-98808604D01*
X134220887Y-98808613D01*
X134292072Y-98915148D01*
X134292075Y-98915152D01*
X134382676Y-99005753D01*
X134382680Y-99005756D01*
X134489215Y-99076941D01*
X134489221Y-99076944D01*
X134489222Y-99076945D01*
X134607605Y-99125981D01*
X134607609Y-99125981D01*
X134607610Y-99125982D01*
X134733277Y-99150980D01*
X134733280Y-99150980D01*
X134861420Y-99150980D01*
X134945964Y-99134162D01*
X134987093Y-99125981D01*
X135105476Y-99076945D01*
X135212018Y-99005756D01*
X135302625Y-98915149D01*
X135373814Y-98808607D01*
X135396420Y-98754027D01*
X135423296Y-98713805D01*
X137550284Y-96586819D01*
X137611607Y-96553334D01*
X137637965Y-96550500D01*
X137664071Y-96550500D01*
X137748615Y-96533682D01*
X137789744Y-96525501D01*
X137908127Y-96476465D01*
X138014669Y-96405276D01*
X138024447Y-96395498D01*
X138037819Y-96382127D01*
X138099142Y-96348642D01*
X138168834Y-96353626D01*
X138224767Y-96395498D01*
X138248111Y-96458086D01*
X138248903Y-96458009D01*
X138249499Y-96464071D01*
X138274497Y-96589738D01*
X138274499Y-96589744D01*
X138323533Y-96708124D01*
X138323538Y-96708133D01*
X138394723Y-96814668D01*
X138394726Y-96814672D01*
X138485327Y-96905273D01*
X138485331Y-96905276D01*
X138591866Y-96976461D01*
X138591872Y-96976464D01*
X138591873Y-96976465D01*
X138710256Y-97025501D01*
X138710260Y-97025501D01*
X138710261Y-97025502D01*
X138835928Y-97050500D01*
X138835931Y-97050500D01*
X138964071Y-97050500D01*
X139048615Y-97033682D01*
X139089744Y-97025501D01*
X139208127Y-96976465D01*
X139314669Y-96905276D01*
X139405276Y-96814669D01*
X139476465Y-96708127D01*
X139525501Y-96589744D01*
X139548034Y-96476466D01*
X139550500Y-96464071D01*
X139550500Y-96335928D01*
X139525502Y-96210261D01*
X139525501Y-96210260D01*
X139525501Y-96210256D01*
X139476465Y-96091873D01*
X139471396Y-96084286D01*
X139450520Y-96017608D01*
X139450500Y-96015398D01*
X139450500Y-95927527D01*
X139450500Y-95927525D01*
X139412984Y-95787515D01*
X139405469Y-95774499D01*
X139340510Y-95661985D01*
X136240706Y-92562181D01*
X136207221Y-92500858D01*
X136212205Y-92431166D01*
X136254077Y-92375233D01*
X136319541Y-92350816D01*
X136328387Y-92350500D01*
X154446614Y-92350500D01*
X154513653Y-92370185D01*
X154559408Y-92422989D01*
X154569352Y-92492147D01*
X154540327Y-92555703D01*
X154534295Y-92562180D01*
X151900160Y-95196315D01*
X149283294Y-97813181D01*
X149221971Y-97846666D01*
X149195613Y-97849500D01*
X148484601Y-97849500D01*
X148417562Y-97829815D01*
X148415747Y-97828626D01*
X148408127Y-97823535D01*
X148408124Y-97823533D01*
X148408123Y-97823533D01*
X148289744Y-97774499D01*
X148289738Y-97774497D01*
X148164071Y-97749500D01*
X148164069Y-97749500D01*
X148035931Y-97749500D01*
X148035929Y-97749500D01*
X147910261Y-97774497D01*
X147910255Y-97774499D01*
X147791875Y-97823533D01*
X147791866Y-97823538D01*
X147685331Y-97894723D01*
X147685327Y-97894726D01*
X147594726Y-97985327D01*
X147594723Y-97985331D01*
X147523538Y-98091866D01*
X147523533Y-98091875D01*
X147474499Y-98210255D01*
X147474497Y-98210261D01*
X147449500Y-98335928D01*
X147449500Y-98335931D01*
X147449500Y-98464069D01*
X147449500Y-98464071D01*
X147449499Y-98464071D01*
X147474497Y-98589738D01*
X147474499Y-98589744D01*
X147523533Y-98708124D01*
X147523538Y-98708133D01*
X147594723Y-98814668D01*
X147594726Y-98814672D01*
X147685327Y-98905273D01*
X147685331Y-98905276D01*
X147791866Y-98976461D01*
X147791875Y-98976466D01*
X147816870Y-98986819D01*
X147910256Y-99025501D01*
X147910260Y-99025501D01*
X147910261Y-99025502D01*
X148035928Y-99050500D01*
X148035931Y-99050500D01*
X148164071Y-99050500D01*
X148283364Y-99026770D01*
X148289744Y-99025501D01*
X148408127Y-98976465D01*
X148415712Y-98971396D01*
X148482389Y-98950520D01*
X148484601Y-98950500D01*
X149547472Y-98950500D01*
X149547474Y-98950500D01*
X149547475Y-98950500D01*
X149687485Y-98912984D01*
X149813015Y-98840510D01*
X156402805Y-92250717D01*
X156402810Y-92250714D01*
X156413013Y-92240510D01*
X156413015Y-92240510D01*
X158894778Y-89758745D01*
X158956099Y-89725262D01*
X159001855Y-89723955D01*
X159169449Y-89750500D01*
X159169454Y-89750500D01*
X159350551Y-89750500D01*
X159437259Y-89736765D01*
X159529409Y-89722171D01*
X159701639Y-89666211D01*
X159862994Y-89583996D01*
X160002615Y-89482556D01*
X160068421Y-89459076D01*
X160136475Y-89474901D01*
X160185170Y-89525007D01*
X160199500Y-89582874D01*
X160199500Y-109926000D01*
X160179815Y-109993039D01*
X160127011Y-110038794D01*
X160075500Y-110050000D01*
X159510000Y-110050000D01*
X159510000Y-110966988D01*
X159452993Y-110934075D01*
X159325826Y-110900000D01*
X159194174Y-110900000D01*
X159067007Y-110934075D01*
X159010000Y-110966988D01*
X159010000Y-110050000D01*
X158362155Y-110050000D01*
X158302627Y-110056401D01*
X158302620Y-110056403D01*
X158167913Y-110106645D01*
X158167906Y-110106649D01*
X158052812Y-110192809D01*
X158052809Y-110192812D01*
X157966649Y-110307906D01*
X157966645Y-110307913D01*
X157916403Y-110442620D01*
X157916401Y-110442627D01*
X157910000Y-110502155D01*
X157910000Y-110698912D01*
X157890315Y-110765951D01*
X157837511Y-110811706D01*
X157768353Y-110821650D01*
X157704797Y-110792625D01*
X157685682Y-110771797D01*
X157597558Y-110650505D01*
X157597554Y-110650500D01*
X157469499Y-110522445D01*
X157469494Y-110522441D01*
X157322997Y-110416006D01*
X157322996Y-110416005D01*
X157322994Y-110416004D01*
X157271300Y-110389664D01*
X157161639Y-110333788D01*
X157161636Y-110333787D01*
X156989410Y-110277829D01*
X156810551Y-110249500D01*
X156810546Y-110249500D01*
X156629454Y-110249500D01*
X156629449Y-110249500D01*
X156450589Y-110277829D01*
X156278363Y-110333787D01*
X156278360Y-110333788D01*
X156117002Y-110416006D01*
X155970505Y-110522441D01*
X155970500Y-110522445D01*
X155842445Y-110650500D01*
X155842441Y-110650505D01*
X155736006Y-110797002D01*
X155653788Y-110958360D01*
X155653787Y-110958363D01*
X155597829Y-111130589D01*
X155572473Y-111290678D01*
X155542544Y-111353813D01*
X155483232Y-111390744D01*
X155413369Y-111389746D01*
X155355137Y-111351136D01*
X155327527Y-111290678D01*
X155313740Y-111203639D01*
X155302171Y-111130591D01*
X155259708Y-110999901D01*
X155246212Y-110958363D01*
X155246211Y-110958360D01*
X155191250Y-110850495D01*
X155163996Y-110797006D01*
X155123341Y-110741049D01*
X155057558Y-110650505D01*
X155057554Y-110650500D01*
X154929499Y-110522445D01*
X154929494Y-110522441D01*
X154782997Y-110416006D01*
X154782996Y-110416005D01*
X154782994Y-110416004D01*
X154731300Y-110389664D01*
X154621639Y-110333788D01*
X154621636Y-110333787D01*
X154449410Y-110277829D01*
X154270551Y-110249500D01*
X154270546Y-110249500D01*
X154089454Y-110249500D01*
X154089449Y-110249500D01*
X153910589Y-110277829D01*
X153738363Y-110333787D01*
X153738360Y-110333788D01*
X153577002Y-110416006D01*
X153430505Y-110522441D01*
X153430500Y-110522445D01*
X153302445Y-110650500D01*
X153302441Y-110650505D01*
X153196006Y-110797002D01*
X153113788Y-110958360D01*
X153113787Y-110958363D01*
X153057829Y-111130589D01*
X153032473Y-111290678D01*
X153002544Y-111353813D01*
X152943232Y-111390744D01*
X152873369Y-111389746D01*
X152815137Y-111351136D01*
X152787527Y-111290678D01*
X152773740Y-111203639D01*
X152762171Y-111130591D01*
X152719708Y-110999901D01*
X152706212Y-110958363D01*
X152706211Y-110958360D01*
X152651250Y-110850495D01*
X152623996Y-110797006D01*
X152583341Y-110741049D01*
X152517558Y-110650505D01*
X152517554Y-110650500D01*
X152389499Y-110522445D01*
X152389494Y-110522441D01*
X152242997Y-110416006D01*
X152242996Y-110416005D01*
X152242994Y-110416004D01*
X152191300Y-110389664D01*
X152081639Y-110333788D01*
X152081636Y-110333787D01*
X151909410Y-110277829D01*
X151730551Y-110249500D01*
X151730546Y-110249500D01*
X151549454Y-110249500D01*
X151549449Y-110249500D01*
X151370589Y-110277829D01*
X151198363Y-110333787D01*
X151198360Y-110333788D01*
X151037002Y-110416006D01*
X150890505Y-110522441D01*
X150890500Y-110522445D01*
X150762445Y-110650500D01*
X150762441Y-110650505D01*
X150656006Y-110797002D01*
X150573788Y-110958360D01*
X150573787Y-110958363D01*
X150517829Y-111130589D01*
X150492473Y-111290678D01*
X150462544Y-111353813D01*
X150403232Y-111390744D01*
X150333369Y-111389746D01*
X150275137Y-111351136D01*
X150247527Y-111290678D01*
X150233740Y-111203639D01*
X150222171Y-111130591D01*
X150179708Y-110999901D01*
X150166212Y-110958363D01*
X150166211Y-110958360D01*
X150111250Y-110850495D01*
X150083996Y-110797006D01*
X150043341Y-110741049D01*
X149977558Y-110650505D01*
X149977554Y-110650500D01*
X149849499Y-110522445D01*
X149849494Y-110522441D01*
X149702997Y-110416006D01*
X149702996Y-110416005D01*
X149702994Y-110416004D01*
X149651300Y-110389664D01*
X149541639Y-110333788D01*
X149541636Y-110333787D01*
X149369410Y-110277829D01*
X149190551Y-110249500D01*
X149190546Y-110249500D01*
X149009454Y-110249500D01*
X149009449Y-110249500D01*
X148830589Y-110277829D01*
X148658363Y-110333787D01*
X148658360Y-110333788D01*
X148497002Y-110416006D01*
X148350505Y-110522441D01*
X148350500Y-110522445D01*
X148222445Y-110650500D01*
X148222441Y-110650505D01*
X148116006Y-110797002D01*
X148033788Y-110958360D01*
X148033787Y-110958363D01*
X147977829Y-111130589D01*
X147952473Y-111290678D01*
X147922544Y-111353813D01*
X147863232Y-111390744D01*
X147793369Y-111389746D01*
X147735137Y-111351136D01*
X147707527Y-111290678D01*
X147693740Y-111203639D01*
X147682171Y-111130591D01*
X147639708Y-110999901D01*
X147626212Y-110958363D01*
X147626211Y-110958360D01*
X147571250Y-110850495D01*
X147543996Y-110797006D01*
X147503341Y-110741049D01*
X147437558Y-110650505D01*
X147437554Y-110650500D01*
X147309499Y-110522445D01*
X147309494Y-110522441D01*
X147162997Y-110416006D01*
X147162996Y-110416005D01*
X147162994Y-110416004D01*
X147111300Y-110389664D01*
X147001639Y-110333788D01*
X147001636Y-110333787D01*
X146829410Y-110277829D01*
X146650551Y-110249500D01*
X146650546Y-110249500D01*
X146469454Y-110249500D01*
X146469449Y-110249500D01*
X146290589Y-110277829D01*
X146118363Y-110333787D01*
X146118360Y-110333788D01*
X145957002Y-110416006D01*
X145810505Y-110522441D01*
X145810500Y-110522445D01*
X145682445Y-110650500D01*
X145682441Y-110650505D01*
X145576006Y-110797002D01*
X145493788Y-110958360D01*
X145493787Y-110958363D01*
X145437829Y-111130589D01*
X145412473Y-111290678D01*
X145382544Y-111353813D01*
X145323232Y-111390744D01*
X145253369Y-111389746D01*
X145195137Y-111351136D01*
X145167527Y-111290678D01*
X145153740Y-111203639D01*
X145142171Y-111130591D01*
X145099708Y-110999901D01*
X145086212Y-110958363D01*
X145086211Y-110958360D01*
X145031250Y-110850495D01*
X145003996Y-110797006D01*
X144963341Y-110741049D01*
X144897558Y-110650505D01*
X144897554Y-110650500D01*
X144769499Y-110522445D01*
X144769494Y-110522441D01*
X144622997Y-110416006D01*
X144622996Y-110416005D01*
X144622994Y-110416004D01*
X144571300Y-110389664D01*
X144461639Y-110333788D01*
X144461636Y-110333787D01*
X144289410Y-110277829D01*
X144110551Y-110249500D01*
X144110546Y-110249500D01*
X143929454Y-110249500D01*
X143929449Y-110249500D01*
X143750589Y-110277829D01*
X143578363Y-110333787D01*
X143578360Y-110333788D01*
X143417002Y-110416006D01*
X143270505Y-110522441D01*
X143270500Y-110522445D01*
X143142445Y-110650500D01*
X143142441Y-110650505D01*
X143036006Y-110797002D01*
X142953788Y-110958360D01*
X142953787Y-110958363D01*
X142897829Y-111130589D01*
X142872473Y-111290678D01*
X142842544Y-111353813D01*
X142783232Y-111390744D01*
X142713369Y-111389746D01*
X142655137Y-111351136D01*
X142627527Y-111290678D01*
X142613740Y-111203639D01*
X142602171Y-111130591D01*
X142559708Y-110999901D01*
X142546212Y-110958363D01*
X142546211Y-110958360D01*
X142491250Y-110850495D01*
X142463996Y-110797006D01*
X142423341Y-110741049D01*
X142357558Y-110650505D01*
X142357554Y-110650500D01*
X142229499Y-110522445D01*
X142229494Y-110522441D01*
X142082997Y-110416006D01*
X142082996Y-110416005D01*
X142082994Y-110416004D01*
X142031300Y-110389664D01*
X141921639Y-110333788D01*
X141921636Y-110333787D01*
X141749410Y-110277829D01*
X141570551Y-110249500D01*
X141570546Y-110249500D01*
X141389454Y-110249500D01*
X141389449Y-110249500D01*
X141210589Y-110277829D01*
X141038363Y-110333787D01*
X141038360Y-110333788D01*
X140877002Y-110416006D01*
X140730505Y-110522441D01*
X140730500Y-110522445D01*
X140602445Y-110650500D01*
X140602441Y-110650505D01*
X140496006Y-110797002D01*
X140413788Y-110958360D01*
X140413787Y-110958363D01*
X140357829Y-111130589D01*
X140332473Y-111290678D01*
X140302544Y-111353813D01*
X140243232Y-111390744D01*
X140173369Y-111389746D01*
X140115137Y-111351136D01*
X140087527Y-111290678D01*
X140073740Y-111203639D01*
X140062171Y-111130591D01*
X140019708Y-110999901D01*
X140006212Y-110958363D01*
X140006211Y-110958360D01*
X139951250Y-110850495D01*
X139923996Y-110797006D01*
X139883341Y-110741049D01*
X139817558Y-110650505D01*
X139817554Y-110650500D01*
X139689499Y-110522445D01*
X139689494Y-110522441D01*
X139542997Y-110416006D01*
X139542996Y-110416005D01*
X139542994Y-110416004D01*
X139491300Y-110389664D01*
X139381639Y-110333788D01*
X139381636Y-110333787D01*
X139209410Y-110277829D01*
X139030551Y-110249500D01*
X139030546Y-110249500D01*
X138849454Y-110249500D01*
X138849449Y-110249500D01*
X138670589Y-110277829D01*
X138498363Y-110333787D01*
X138498360Y-110333788D01*
X138337002Y-110416006D01*
X138190505Y-110522441D01*
X138190500Y-110522445D01*
X138062445Y-110650500D01*
X138062441Y-110650505D01*
X137956006Y-110797002D01*
X137873788Y-110958360D01*
X137873787Y-110958363D01*
X137817829Y-111130589D01*
X137792473Y-111290678D01*
X137762544Y-111353813D01*
X137703232Y-111390744D01*
X137633369Y-111389746D01*
X137575137Y-111351136D01*
X137547527Y-111290678D01*
X137533740Y-111203639D01*
X137522171Y-111130591D01*
X137479708Y-110999901D01*
X137466212Y-110958363D01*
X137466211Y-110958360D01*
X137411250Y-110850495D01*
X137383996Y-110797006D01*
X137343341Y-110741049D01*
X137277558Y-110650505D01*
X137277554Y-110650500D01*
X137149499Y-110522445D01*
X137149494Y-110522441D01*
X137002997Y-110416006D01*
X137002996Y-110416005D01*
X137002994Y-110416004D01*
X136951300Y-110389664D01*
X136841639Y-110333788D01*
X136841636Y-110333787D01*
X136669410Y-110277829D01*
X136490551Y-110249500D01*
X136490546Y-110249500D01*
X136309454Y-110249500D01*
X136309449Y-110249500D01*
X136130589Y-110277829D01*
X135958363Y-110333787D01*
X135958360Y-110333788D01*
X135797002Y-110416006D01*
X135650505Y-110522441D01*
X135650500Y-110522445D01*
X135522445Y-110650500D01*
X135522441Y-110650505D01*
X135416006Y-110797002D01*
X135333788Y-110958360D01*
X135333787Y-110958363D01*
X135277829Y-111130589D01*
X135252473Y-111290678D01*
X135222544Y-111353813D01*
X135163232Y-111390744D01*
X135093369Y-111389746D01*
X135035137Y-111351136D01*
X135007527Y-111290678D01*
X134993740Y-111203639D01*
X134982171Y-111130591D01*
X134939708Y-110999901D01*
X134926212Y-110958363D01*
X134926211Y-110958360D01*
X134871250Y-110850495D01*
X134843996Y-110797006D01*
X134803341Y-110741049D01*
X134737558Y-110650505D01*
X134737554Y-110650500D01*
X134609499Y-110522445D01*
X134609494Y-110522441D01*
X134462997Y-110416006D01*
X134462996Y-110416005D01*
X134462994Y-110416004D01*
X134411300Y-110389664D01*
X134301639Y-110333788D01*
X134301636Y-110333787D01*
X134129410Y-110277829D01*
X133950551Y-110249500D01*
X133950546Y-110249500D01*
X133769454Y-110249500D01*
X133769449Y-110249500D01*
X133590589Y-110277829D01*
X133418363Y-110333787D01*
X133418360Y-110333788D01*
X133257002Y-110416006D01*
X133110505Y-110522441D01*
X133110500Y-110522445D01*
X132982445Y-110650500D01*
X132982441Y-110650505D01*
X132876006Y-110797002D01*
X132793788Y-110958360D01*
X132793787Y-110958363D01*
X132737829Y-111130589D01*
X132712473Y-111290678D01*
X132682544Y-111353813D01*
X132623232Y-111390744D01*
X132553369Y-111389746D01*
X132495137Y-111351136D01*
X132467527Y-111290678D01*
X132453740Y-111203639D01*
X132442171Y-111130591D01*
X132399708Y-110999901D01*
X132386212Y-110958363D01*
X132386211Y-110958360D01*
X132331250Y-110850495D01*
X132303996Y-110797006D01*
X132263341Y-110741049D01*
X132197558Y-110650505D01*
X132197554Y-110650500D01*
X132069499Y-110522445D01*
X132069494Y-110522441D01*
X131922997Y-110416006D01*
X131922996Y-110416005D01*
X131922994Y-110416004D01*
X131871300Y-110389664D01*
X131761639Y-110333788D01*
X131761636Y-110333787D01*
X131589410Y-110277829D01*
X131410551Y-110249500D01*
X131410546Y-110249500D01*
X131229454Y-110249500D01*
X131229449Y-110249500D01*
X131050592Y-110277828D01*
X130960084Y-110307235D01*
X130890243Y-110309229D01*
X130834087Y-110276984D01*
X129896616Y-109339513D01*
X129896614Y-109339511D01*
X129845250Y-109309856D01*
X129793888Y-109280201D01*
X129781780Y-109276957D01*
X129769673Y-109273713D01*
X129769670Y-109273712D01*
X129731478Y-109263478D01*
X129679309Y-109249500D01*
X129679308Y-109249500D01*
X129137966Y-109249500D01*
X129070927Y-109229815D01*
X129050285Y-109213181D01*
X127386819Y-107549715D01*
X127353334Y-107488392D01*
X127350500Y-107462034D01*
X127350500Y-107335928D01*
X127325502Y-107210261D01*
X127325501Y-107210260D01*
X127325501Y-107210256D01*
X127276465Y-107091873D01*
X127276464Y-107091872D01*
X127276461Y-107091866D01*
X127205276Y-106985331D01*
X127205273Y-106985327D01*
X127114672Y-106894726D01*
X127114668Y-106894723D01*
X127008133Y-106823538D01*
X127008124Y-106823533D01*
X126889744Y-106774499D01*
X126889738Y-106774497D01*
X126850308Y-106766654D01*
X126788397Y-106734269D01*
X126753823Y-106673553D01*
X126750500Y-106645037D01*
X126750500Y-106635928D01*
X126725502Y-106510261D01*
X126725501Y-106510260D01*
X126725501Y-106510256D01*
X126679160Y-106398379D01*
X126676466Y-106391875D01*
X126676461Y-106391866D01*
X126605276Y-106285331D01*
X126605273Y-106285327D01*
X126514672Y-106194726D01*
X126514668Y-106194723D01*
X126408133Y-106123538D01*
X126408124Y-106123533D01*
X126289744Y-106074499D01*
X126289738Y-106074497D01*
X126164071Y-106049500D01*
X126164069Y-106049500D01*
X126137965Y-106049500D01*
X126070926Y-106029815D01*
X126050284Y-106013181D01*
X125876616Y-105839513D01*
X125876614Y-105839511D01*
X125825250Y-105809856D01*
X125773888Y-105780201D01*
X125761780Y-105776957D01*
X125749673Y-105773713D01*
X125749670Y-105773712D01*
X125711478Y-105763478D01*
X125659309Y-105749500D01*
X125659308Y-105749500D01*
X114137965Y-105749500D01*
X114070926Y-105729815D01*
X114050284Y-105713181D01*
X112976616Y-104639513D01*
X112976614Y-104639511D01*
X112913954Y-104603334D01*
X112873888Y-104580201D01*
X112858208Y-104576000D01*
X112849673Y-104573713D01*
X112849670Y-104573712D01*
X112798719Y-104560060D01*
X112759309Y-104549500D01*
X112759308Y-104549500D01*
X110520808Y-104549500D01*
X110453769Y-104529815D01*
X110433127Y-104513181D01*
X110414672Y-104494726D01*
X110414668Y-104494723D01*
X110308133Y-104423538D01*
X110308124Y-104423533D01*
X110189744Y-104374499D01*
X110189738Y-104374497D01*
X110064071Y-104349500D01*
X110064069Y-104349500D01*
X109935931Y-104349500D01*
X109935929Y-104349500D01*
X109810261Y-104374497D01*
X109810255Y-104374499D01*
X109691875Y-104423533D01*
X109691866Y-104423538D01*
X109585331Y-104494723D01*
X109585327Y-104494726D01*
X109494726Y-104585327D01*
X109494723Y-104585331D01*
X109423538Y-104691866D01*
X109423533Y-104691875D01*
X109374499Y-104810255D01*
X109374497Y-104810261D01*
X109349500Y-104935928D01*
X109349500Y-104935931D01*
X109349500Y-105064069D01*
X109349500Y-105064071D01*
X109349499Y-105064071D01*
X109374497Y-105189738D01*
X109374499Y-105189744D01*
X109423533Y-105308124D01*
X109423538Y-105308133D01*
X109494723Y-105414668D01*
X109494726Y-105414672D01*
X109585327Y-105505273D01*
X109585331Y-105505276D01*
X109691866Y-105576461D01*
X109691875Y-105576466D01*
X109707971Y-105583133D01*
X109810256Y-105625501D01*
X109810260Y-105625501D01*
X109810261Y-105625502D01*
X109935928Y-105650500D01*
X109935931Y-105650500D01*
X110064071Y-105650500D01*
X110148615Y-105633682D01*
X110189744Y-105625501D01*
X110308127Y-105576465D01*
X110414669Y-105505276D01*
X110414672Y-105505273D01*
X110433127Y-105486819D01*
X110494450Y-105453334D01*
X110520808Y-105450500D01*
X112462035Y-105450500D01*
X112529074Y-105470185D01*
X112549716Y-105486819D01*
X113623386Y-106560489D01*
X113623387Y-106560490D01*
X113623389Y-106560491D01*
X113682693Y-106594729D01*
X113682696Y-106594732D01*
X113716937Y-106614500D01*
X113726114Y-106619799D01*
X113840691Y-106650500D01*
X124350270Y-106650500D01*
X124417309Y-106670185D01*
X124463064Y-106722989D01*
X124473008Y-106792147D01*
X124471887Y-106798692D01*
X124449500Y-106911233D01*
X124449500Y-106911236D01*
X124449500Y-107039374D01*
X124449500Y-107039376D01*
X124449499Y-107039376D01*
X124474497Y-107165043D01*
X124474499Y-107165049D01*
X124523533Y-107283429D01*
X124523538Y-107283438D01*
X124594723Y-107389973D01*
X124594725Y-107389976D01*
X124613179Y-107408429D01*
X124646666Y-107469751D01*
X124649500Y-107496112D01*
X124649500Y-107759309D01*
X124664334Y-107814669D01*
X124680201Y-107873887D01*
X124739511Y-107976614D01*
X124739513Y-107976616D01*
X126974257Y-110211360D01*
X127007742Y-110272683D01*
X127002758Y-110342375D01*
X126960886Y-110398308D01*
X126895422Y-110422725D01*
X126830281Y-110409526D01*
X126681639Y-110333788D01*
X126681636Y-110333787D01*
X126509410Y-110277829D01*
X126330551Y-110249500D01*
X126330546Y-110249500D01*
X126149454Y-110249500D01*
X126149449Y-110249500D01*
X125970589Y-110277829D01*
X125798363Y-110333787D01*
X125798360Y-110333788D01*
X125637002Y-110416006D01*
X125490505Y-110522441D01*
X125490500Y-110522445D01*
X125362445Y-110650500D01*
X125362441Y-110650505D01*
X125256006Y-110797002D01*
X125173788Y-110958360D01*
X125173787Y-110958363D01*
X125117829Y-111130589D01*
X125092473Y-111290678D01*
X125062544Y-111353813D01*
X125003232Y-111390744D01*
X124933369Y-111389746D01*
X124875137Y-111351136D01*
X124847527Y-111290678D01*
X124833740Y-111203639D01*
X124822171Y-111130591D01*
X124779708Y-110999901D01*
X124766212Y-110958363D01*
X124766211Y-110958360D01*
X124711250Y-110850495D01*
X124683996Y-110797006D01*
X124643341Y-110741049D01*
X124577558Y-110650505D01*
X124577554Y-110650500D01*
X124449499Y-110522445D01*
X124449494Y-110522441D01*
X124302997Y-110416006D01*
X124302996Y-110416005D01*
X124302994Y-110416004D01*
X124251300Y-110389664D01*
X124141639Y-110333788D01*
X124141636Y-110333787D01*
X123969410Y-110277829D01*
X123790551Y-110249500D01*
X123790546Y-110249500D01*
X123609454Y-110249500D01*
X123609449Y-110249500D01*
X123430589Y-110277829D01*
X123258363Y-110333787D01*
X123258360Y-110333788D01*
X123097002Y-110416006D01*
X122950505Y-110522441D01*
X122950500Y-110522445D01*
X122822445Y-110650500D01*
X122822441Y-110650505D01*
X122716006Y-110797002D01*
X122633788Y-110958360D01*
X122633787Y-110958363D01*
X122577829Y-111130589D01*
X122552473Y-111290678D01*
X122522544Y-111353813D01*
X122463232Y-111390744D01*
X122393369Y-111389746D01*
X122335137Y-111351136D01*
X122307527Y-111290678D01*
X122293740Y-111203639D01*
X122282171Y-111130591D01*
X122239708Y-110999901D01*
X122226212Y-110958363D01*
X122226211Y-110958360D01*
X122171250Y-110850495D01*
X122143996Y-110797006D01*
X122103341Y-110741049D01*
X122037558Y-110650505D01*
X122037554Y-110650500D01*
X121909499Y-110522445D01*
X121909494Y-110522441D01*
X121762997Y-110416006D01*
X121762996Y-110416005D01*
X121762994Y-110416004D01*
X121711300Y-110389664D01*
X121601639Y-110333788D01*
X121601636Y-110333787D01*
X121429410Y-110277829D01*
X121250551Y-110249500D01*
X121250546Y-110249500D01*
X121069454Y-110249500D01*
X121069449Y-110249500D01*
X120890589Y-110277829D01*
X120718363Y-110333787D01*
X120718360Y-110333788D01*
X120557002Y-110416006D01*
X120410505Y-110522441D01*
X120410500Y-110522445D01*
X120282445Y-110650500D01*
X120282441Y-110650505D01*
X120176006Y-110797002D01*
X120093788Y-110958360D01*
X120093787Y-110958363D01*
X120037829Y-111130589D01*
X120012473Y-111290678D01*
X119982544Y-111353813D01*
X119923232Y-111390744D01*
X119853369Y-111389746D01*
X119795137Y-111351136D01*
X119767527Y-111290678D01*
X119753740Y-111203639D01*
X119742171Y-111130591D01*
X119699708Y-110999901D01*
X119686212Y-110958363D01*
X119686211Y-110958360D01*
X119631250Y-110850495D01*
X119603996Y-110797006D01*
X119563341Y-110741049D01*
X119497558Y-110650505D01*
X119497554Y-110650500D01*
X119369499Y-110522445D01*
X119369494Y-110522441D01*
X119222997Y-110416006D01*
X119222996Y-110416005D01*
X119222994Y-110416004D01*
X119171300Y-110389664D01*
X119061639Y-110333788D01*
X119061636Y-110333787D01*
X118889410Y-110277829D01*
X118710551Y-110249500D01*
X118710546Y-110249500D01*
X118529454Y-110249500D01*
X118529449Y-110249500D01*
X118350589Y-110277829D01*
X118178363Y-110333787D01*
X118178360Y-110333788D01*
X118017002Y-110416006D01*
X117870505Y-110522441D01*
X117870500Y-110522445D01*
X117742445Y-110650500D01*
X117742441Y-110650505D01*
X117636006Y-110797002D01*
X117553788Y-110958360D01*
X117553787Y-110958363D01*
X117497829Y-111130589D01*
X117472473Y-111290678D01*
X117442544Y-111353813D01*
X117383232Y-111390744D01*
X117313369Y-111389746D01*
X117255137Y-111351136D01*
X117227527Y-111290678D01*
X117213740Y-111203639D01*
X117202171Y-111130591D01*
X117159708Y-110999901D01*
X117146212Y-110958363D01*
X117146211Y-110958360D01*
X117091250Y-110850495D01*
X117063996Y-110797006D01*
X117023341Y-110741049D01*
X116957558Y-110650505D01*
X116957554Y-110650500D01*
X116829499Y-110522445D01*
X116829494Y-110522441D01*
X116682997Y-110416006D01*
X116682996Y-110416005D01*
X116682994Y-110416004D01*
X116631300Y-110389664D01*
X116521639Y-110333788D01*
X116521636Y-110333787D01*
X116349410Y-110277829D01*
X116170551Y-110249500D01*
X116170546Y-110249500D01*
X115989454Y-110249500D01*
X115989449Y-110249500D01*
X115810589Y-110277829D01*
X115638363Y-110333787D01*
X115638360Y-110333788D01*
X115477002Y-110416006D01*
X115330505Y-110522441D01*
X115330500Y-110522445D01*
X115202445Y-110650500D01*
X115202441Y-110650505D01*
X115096006Y-110797002D01*
X115013788Y-110958360D01*
X115013787Y-110958363D01*
X114957829Y-111130589D01*
X114932473Y-111290678D01*
X114902544Y-111353813D01*
X114843232Y-111390744D01*
X114773369Y-111389746D01*
X114715137Y-111351136D01*
X114687527Y-111290678D01*
X114673740Y-111203639D01*
X114662171Y-111130591D01*
X114619708Y-110999901D01*
X114606212Y-110958363D01*
X114606211Y-110958360D01*
X114551250Y-110850495D01*
X114523996Y-110797006D01*
X114483341Y-110741049D01*
X114417558Y-110650505D01*
X114417554Y-110650500D01*
X114289499Y-110522445D01*
X114289494Y-110522441D01*
X114142997Y-110416006D01*
X114142996Y-110416005D01*
X114142994Y-110416004D01*
X114091300Y-110389664D01*
X113981639Y-110333788D01*
X113981636Y-110333787D01*
X113809410Y-110277829D01*
X113630551Y-110249500D01*
X113630546Y-110249500D01*
X113449454Y-110249500D01*
X113449449Y-110249500D01*
X113270589Y-110277829D01*
X113098363Y-110333787D01*
X113098360Y-110333788D01*
X112937002Y-110416006D01*
X112790505Y-110522441D01*
X112790500Y-110522445D01*
X112662445Y-110650500D01*
X112662441Y-110650505D01*
X112556006Y-110797002D01*
X112473788Y-110958360D01*
X112473787Y-110958363D01*
X112417829Y-111130589D01*
X112392473Y-111290678D01*
X112362544Y-111353813D01*
X112303232Y-111390744D01*
X112233369Y-111389746D01*
X112175137Y-111351136D01*
X112147527Y-111290678D01*
X112133740Y-111203639D01*
X112122171Y-111130591D01*
X112079708Y-110999901D01*
X112066212Y-110958363D01*
X112066211Y-110958360D01*
X112011250Y-110850495D01*
X111983996Y-110797006D01*
X111943341Y-110741049D01*
X111877558Y-110650505D01*
X111877554Y-110650500D01*
X111749499Y-110522445D01*
X111749494Y-110522441D01*
X111602997Y-110416006D01*
X111602996Y-110416005D01*
X111602994Y-110416004D01*
X111551300Y-110389664D01*
X111441639Y-110333788D01*
X111441636Y-110333787D01*
X111269410Y-110277829D01*
X111090551Y-110249500D01*
X111090546Y-110249500D01*
X110909454Y-110249500D01*
X110909449Y-110249500D01*
X110730589Y-110277829D01*
X110558363Y-110333787D01*
X110558360Y-110333788D01*
X110397002Y-110416006D01*
X110250505Y-110522441D01*
X110250500Y-110522445D01*
X110122445Y-110650500D01*
X110122441Y-110650505D01*
X110016006Y-110797002D01*
X109933788Y-110958360D01*
X109933787Y-110958363D01*
X109877829Y-111130589D01*
X109852473Y-111290678D01*
X109822544Y-111353813D01*
X109763232Y-111390744D01*
X109693369Y-111389746D01*
X109635137Y-111351136D01*
X109607527Y-111290678D01*
X109593740Y-111203639D01*
X109582171Y-111130591D01*
X109539708Y-110999901D01*
X109526212Y-110958363D01*
X109526211Y-110958360D01*
X109471250Y-110850495D01*
X109443996Y-110797006D01*
X109403341Y-110741049D01*
X109337558Y-110650505D01*
X109337554Y-110650500D01*
X109209499Y-110522445D01*
X109209494Y-110522441D01*
X109062997Y-110416006D01*
X109062996Y-110416005D01*
X109062994Y-110416004D01*
X109011300Y-110389664D01*
X108901639Y-110333788D01*
X108901636Y-110333787D01*
X108729410Y-110277829D01*
X108550551Y-110249500D01*
X108550546Y-110249500D01*
X108369454Y-110249500D01*
X108369449Y-110249500D01*
X108190589Y-110277829D01*
X108018363Y-110333787D01*
X108018360Y-110333788D01*
X107857002Y-110416006D01*
X107710505Y-110522441D01*
X107710500Y-110522445D01*
X107582445Y-110650500D01*
X107582441Y-110650505D01*
X107476006Y-110797002D01*
X107393788Y-110958360D01*
X107393787Y-110958363D01*
X107337829Y-111130589D01*
X107312473Y-111290678D01*
X107282544Y-111353813D01*
X107223232Y-111390744D01*
X107153369Y-111389746D01*
X107095137Y-111351136D01*
X107067527Y-111290678D01*
X107053740Y-111203639D01*
X107042171Y-111130591D01*
X106999708Y-110999901D01*
X106986212Y-110958363D01*
X106986211Y-110958360D01*
X106931250Y-110850495D01*
X106903996Y-110797006D01*
X106863341Y-110741049D01*
X106797558Y-110650505D01*
X106797554Y-110650500D01*
X106669499Y-110522445D01*
X106669494Y-110522441D01*
X106522997Y-110416006D01*
X106522996Y-110416005D01*
X106522994Y-110416004D01*
X106471300Y-110389664D01*
X106361639Y-110333788D01*
X106361636Y-110333787D01*
X106189410Y-110277829D01*
X106010551Y-110249500D01*
X106010546Y-110249500D01*
X105829454Y-110249500D01*
X105829449Y-110249500D01*
X105650589Y-110277829D01*
X105478363Y-110333787D01*
X105478360Y-110333788D01*
X105317002Y-110416006D01*
X105170505Y-110522441D01*
X105170500Y-110522445D01*
X105042445Y-110650500D01*
X105042441Y-110650505D01*
X104936006Y-110797002D01*
X104853788Y-110958360D01*
X104853787Y-110958363D01*
X104797829Y-111130589D01*
X104772473Y-111290678D01*
X104742544Y-111353813D01*
X104683232Y-111390744D01*
X104613369Y-111389746D01*
X104555137Y-111351136D01*
X104527527Y-111290678D01*
X104513740Y-111203639D01*
X104502171Y-111130591D01*
X104459708Y-110999901D01*
X104446212Y-110958363D01*
X104446211Y-110958360D01*
X104391250Y-110850495D01*
X104363996Y-110797006D01*
X104323341Y-110741049D01*
X104257558Y-110650505D01*
X104257554Y-110650500D01*
X104129499Y-110522445D01*
X104129494Y-110522441D01*
X103982997Y-110416006D01*
X103982996Y-110416005D01*
X103982994Y-110416004D01*
X103931300Y-110389664D01*
X103821639Y-110333788D01*
X103821636Y-110333787D01*
X103649410Y-110277829D01*
X103470551Y-110249500D01*
X103470546Y-110249500D01*
X103289454Y-110249500D01*
X103289449Y-110249500D01*
X103110589Y-110277829D01*
X102938363Y-110333787D01*
X102938360Y-110333788D01*
X102777002Y-110416006D01*
X102630505Y-110522441D01*
X102630500Y-110522445D01*
X102502445Y-110650500D01*
X102502441Y-110650505D01*
X102396006Y-110797002D01*
X102313788Y-110958360D01*
X102313787Y-110958363D01*
X102257829Y-111130589D01*
X102232473Y-111290678D01*
X102202544Y-111353813D01*
X102143232Y-111390744D01*
X102073369Y-111389746D01*
X102015137Y-111351136D01*
X101987527Y-111290678D01*
X101973740Y-111203639D01*
X101962171Y-111130591D01*
X101919708Y-110999901D01*
X101906212Y-110958363D01*
X101906211Y-110958360D01*
X101851250Y-110850495D01*
X101823996Y-110797006D01*
X101783341Y-110741049D01*
X101717558Y-110650505D01*
X101717554Y-110650500D01*
X101589499Y-110522445D01*
X101589494Y-110522441D01*
X101442997Y-110416006D01*
X101442996Y-110416005D01*
X101442994Y-110416004D01*
X101391300Y-110389664D01*
X101281639Y-110333788D01*
X101281636Y-110333787D01*
X101109410Y-110277829D01*
X100930551Y-110249500D01*
X100930546Y-110249500D01*
X100749454Y-110249500D01*
X100749449Y-110249500D01*
X100570589Y-110277829D01*
X100398363Y-110333787D01*
X100398360Y-110333788D01*
X100237002Y-110416006D01*
X100090505Y-110522441D01*
X100090500Y-110522445D01*
X99962445Y-110650500D01*
X99962441Y-110650505D01*
X99874318Y-110771797D01*
X99818988Y-110814463D01*
X99749375Y-110820442D01*
X99687580Y-110787836D01*
X99653223Y-110726998D01*
X99650000Y-110698912D01*
X99650000Y-110502172D01*
X99649999Y-110502155D01*
X99643598Y-110442627D01*
X99643596Y-110442620D01*
X99593354Y-110307913D01*
X99593350Y-110307906D01*
X99507190Y-110192812D01*
X99507187Y-110192809D01*
X99392093Y-110106649D01*
X99392086Y-110106645D01*
X99257379Y-110056403D01*
X99257372Y-110056401D01*
X99197844Y-110050000D01*
X98550000Y-110050000D01*
X98550000Y-110966988D01*
X98492993Y-110934075D01*
X98365826Y-110900000D01*
X98234174Y-110900000D01*
X98107007Y-110934075D01*
X98050000Y-110966988D01*
X98050000Y-110050000D01*
X97524500Y-110050000D01*
X97457461Y-110030315D01*
X97411706Y-109977511D01*
X97400500Y-109926000D01*
X97400500Y-105405253D01*
X97420185Y-105338214D01*
X97472989Y-105292459D01*
X97542147Y-105282515D01*
X97548691Y-105283636D01*
X97731504Y-105319999D01*
X97731508Y-105320000D01*
X98180000Y-105320000D01*
X98180000Y-104620000D01*
X98680000Y-104620000D01*
X98680000Y-105320000D01*
X99128492Y-105320000D01*
X99128495Y-105319999D01*
X99321681Y-105281572D01*
X99321693Y-105281569D01*
X99503671Y-105206192D01*
X99503684Y-105206185D01*
X99667462Y-105096751D01*
X99667466Y-105096748D01*
X99806748Y-104957466D01*
X99806751Y-104957462D01*
X99916185Y-104793684D01*
X99916192Y-104793671D01*
X99991569Y-104611692D01*
X99991569Y-104611690D01*
X99999862Y-104570000D01*
X99196988Y-104570000D01*
X99214205Y-104560060D01*
X99270060Y-104504205D01*
X99309556Y-104435796D01*
X99330000Y-104359496D01*
X99330000Y-104280504D01*
X99309556Y-104204204D01*
X99270060Y-104135795D01*
X99214205Y-104079940D01*
X99196988Y-104070000D01*
X99999862Y-104070000D01*
X99991569Y-104028309D01*
X99991569Y-104028307D01*
X99916192Y-103846328D01*
X99916185Y-103846315D01*
X99806751Y-103682537D01*
X99806748Y-103682533D01*
X99667466Y-103543251D01*
X99667462Y-103543248D01*
X99503684Y-103433814D01*
X99503671Y-103433807D01*
X99321693Y-103358430D01*
X99321681Y-103358427D01*
X99128495Y-103320000D01*
X98680000Y-103320000D01*
X98680000Y-104020000D01*
X98180000Y-104020000D01*
X98180000Y-103320000D01*
X97731504Y-103320000D01*
X97548691Y-103356364D01*
X97479099Y-103350137D01*
X97423922Y-103307274D01*
X97400678Y-103241384D01*
X97400500Y-103234747D01*
X97400500Y-96761247D01*
X97420185Y-96694208D01*
X97472989Y-96648453D01*
X97542147Y-96638509D01*
X97548691Y-96639630D01*
X97726505Y-96674999D01*
X97726508Y-96675000D01*
X98175000Y-96675000D01*
X98175000Y-95975000D01*
X98675000Y-95975000D01*
X98675000Y-96675000D01*
X99123492Y-96675000D01*
X99123495Y-96674999D01*
X99316681Y-96636572D01*
X99316693Y-96636569D01*
X99498671Y-96561192D01*
X99498684Y-96561185D01*
X99662462Y-96451751D01*
X99662466Y-96451748D01*
X99801748Y-96312466D01*
X99801751Y-96312462D01*
X99911185Y-96148684D01*
X99911192Y-96148671D01*
X99986569Y-95966692D01*
X99986569Y-95966690D01*
X99994862Y-95925000D01*
X99191988Y-95925000D01*
X99209205Y-95915060D01*
X99265060Y-95859205D01*
X99304556Y-95790796D01*
X99325000Y-95714496D01*
X99325000Y-95635504D01*
X99304556Y-95559204D01*
X99265060Y-95490795D01*
X99209205Y-95434940D01*
X99191988Y-95425000D01*
X99994862Y-95425000D01*
X99986569Y-95383309D01*
X99986569Y-95383307D01*
X99911192Y-95201328D01*
X99911185Y-95201315D01*
X99801751Y-95037537D01*
X99801748Y-95037533D01*
X99662466Y-94898251D01*
X99662462Y-94898248D01*
X99498684Y-94788814D01*
X99498671Y-94788807D01*
X99316693Y-94713430D01*
X99316681Y-94713427D01*
X99123495Y-94675000D01*
X98675000Y-94675000D01*
X98675000Y-95375000D01*
X98175000Y-95375000D01*
X98175000Y-94675000D01*
X97726504Y-94675000D01*
X97548691Y-94710369D01*
X97479099Y-94704142D01*
X97423922Y-94661278D01*
X97400678Y-94595389D01*
X97400500Y-94588752D01*
X97400500Y-90074000D01*
X97420185Y-90006961D01*
X97472989Y-89961206D01*
X97524500Y-89950000D01*
X98050000Y-89950000D01*
X98050000Y-89033012D01*
X98107007Y-89065925D01*
X98234174Y-89100000D01*
X98365826Y-89100000D01*
X98492993Y-89065925D01*
X98550000Y-89033012D01*
X98550000Y-89950000D01*
X99197828Y-89950000D01*
X99197844Y-89949999D01*
X99257372Y-89943598D01*
X99257379Y-89943596D01*
X99392086Y-89893354D01*
X99392093Y-89893350D01*
X99507187Y-89807190D01*
X99507190Y-89807187D01*
X99593350Y-89692093D01*
X99593354Y-89692086D01*
X99643596Y-89557379D01*
X99643598Y-89557372D01*
X99649999Y-89497844D01*
X99650000Y-89497827D01*
X99650000Y-89301087D01*
X99669685Y-89234048D01*
X99722489Y-89188293D01*
X99791647Y-89178349D01*
X99855203Y-89207374D01*
X99874318Y-89228202D01*
X99962441Y-89349495D01*
X100090500Y-89477554D01*
X100090505Y-89477558D01*
X100200361Y-89557372D01*
X100237006Y-89583996D01*
X100341793Y-89637388D01*
X100398360Y-89666211D01*
X100398363Y-89666212D01*
X100477997Y-89692086D01*
X100570591Y-89722171D01*
X100653429Y-89735291D01*
X100749449Y-89750500D01*
X100749454Y-89750500D01*
X100930551Y-89750500D01*
X101017259Y-89736765D01*
X101109409Y-89722171D01*
X101281639Y-89666211D01*
X101442994Y-89583996D01*
X101589501Y-89477553D01*
X101717553Y-89349501D01*
X101823996Y-89202994D01*
X101906211Y-89041639D01*
X101962171Y-88869409D01*
X101976422Y-88779425D01*
X101987527Y-88709321D01*
X102017456Y-88646186D01*
X102076768Y-88609255D01*
X102146630Y-88610253D01*
X102204863Y-88648863D01*
X102232473Y-88709321D01*
X102257829Y-88869410D01*
X102313787Y-89041636D01*
X102313788Y-89041639D01*
X102347510Y-89107820D01*
X102388513Y-89188293D01*
X102396006Y-89202997D01*
X102502441Y-89349494D01*
X102502445Y-89349499D01*
X102630500Y-89477554D01*
X102630505Y-89477558D01*
X102777004Y-89583995D01*
X102777006Y-89583996D01*
X102881795Y-89637389D01*
X102932591Y-89685362D01*
X102949500Y-89747873D01*
X102949500Y-92520613D01*
X102929815Y-92587652D01*
X102913181Y-92608294D01*
X100459491Y-95061983D01*
X100459490Y-95061985D01*
X100400552Y-95164071D01*
X100399501Y-95165891D01*
X100399500Y-95165892D01*
X100387017Y-95187512D01*
X100387016Y-95187513D01*
X100368258Y-95257520D01*
X100349500Y-95327525D01*
X100349500Y-95327527D01*
X100349500Y-95972474D01*
X100361593Y-96017608D01*
X100381493Y-96091873D01*
X100387016Y-96112485D01*
X100443466Y-96210261D01*
X100459489Y-96238013D01*
X100459491Y-96238016D01*
X101859294Y-97637819D01*
X101892779Y-97699142D01*
X101887795Y-97768834D01*
X101845923Y-97824767D01*
X101780459Y-97849184D01*
X101771613Y-97849500D01*
X101735929Y-97849500D01*
X101610261Y-97874497D01*
X101610255Y-97874499D01*
X101491875Y-97923533D01*
X101491866Y-97923538D01*
X101385331Y-97994723D01*
X101385327Y-97994726D01*
X101366873Y-98013181D01*
X101305550Y-98046666D01*
X101279192Y-98049500D01*
X100420808Y-98049500D01*
X100353769Y-98029815D01*
X100333127Y-98013181D01*
X100314672Y-97994726D01*
X100314668Y-97994723D01*
X100208133Y-97923538D01*
X100208124Y-97923533D01*
X100089744Y-97874499D01*
X100089738Y-97874497D01*
X99964071Y-97849500D01*
X99964069Y-97849500D01*
X99835931Y-97849500D01*
X99835929Y-97849500D01*
X99710261Y-97874497D01*
X99710255Y-97874499D01*
X99591875Y-97923533D01*
X99591866Y-97923538D01*
X99485331Y-97994723D01*
X99485327Y-97994726D01*
X99394726Y-98085327D01*
X99394723Y-98085331D01*
X99323538Y-98191866D01*
X99323533Y-98191875D01*
X99274499Y-98310255D01*
X99274497Y-98310261D01*
X99249500Y-98435928D01*
X99249500Y-98435931D01*
X99249500Y-98564069D01*
X99249500Y-98564071D01*
X99249499Y-98564071D01*
X99274497Y-98689738D01*
X99274499Y-98689744D01*
X99323533Y-98808124D01*
X99323538Y-98808133D01*
X99394723Y-98914668D01*
X99394726Y-98914672D01*
X99485327Y-99005273D01*
X99485331Y-99005276D01*
X99591866Y-99076461D01*
X99591875Y-99076466D01*
X99593034Y-99076946D01*
X99710256Y-99125501D01*
X99710260Y-99125501D01*
X99710261Y-99125502D01*
X99835928Y-99150500D01*
X99835931Y-99150500D01*
X99964071Y-99150500D01*
X100048615Y-99133682D01*
X100089744Y-99125501D01*
X100208127Y-99076465D01*
X100314669Y-99005276D01*
X100314672Y-99005273D01*
X100333127Y-98986819D01*
X100394450Y-98953334D01*
X100420808Y-98950500D01*
X101279192Y-98950500D01*
X101346231Y-98970185D01*
X101366873Y-98986819D01*
X101385327Y-99005273D01*
X101385331Y-99005276D01*
X101491866Y-99076461D01*
X101491875Y-99076466D01*
X101493034Y-99076946D01*
X101610256Y-99125501D01*
X101610260Y-99125501D01*
X101610261Y-99125502D01*
X101735928Y-99150500D01*
X101735931Y-99150500D01*
X101864069Y-99150500D01*
X101901309Y-99143092D01*
X101970897Y-99149318D01*
X102026076Y-99192180D01*
X102049322Y-99258069D01*
X102049500Y-99264709D01*
X102049500Y-100835290D01*
X102029815Y-100902329D01*
X101977011Y-100948084D01*
X101907853Y-100958028D01*
X101901308Y-100956907D01*
X101864071Y-100949500D01*
X101864069Y-100949500D01*
X101735931Y-100949500D01*
X101735929Y-100949500D01*
X101610261Y-100974497D01*
X101610255Y-100974499D01*
X101491875Y-101023533D01*
X101491866Y-101023538D01*
X101385331Y-101094723D01*
X101385327Y-101094726D01*
X101366873Y-101113181D01*
X101305550Y-101146666D01*
X101279192Y-101149500D01*
X100420808Y-101149500D01*
X100353769Y-101129815D01*
X100333127Y-101113181D01*
X100314672Y-101094726D01*
X100314668Y-101094723D01*
X100208133Y-101023538D01*
X100208124Y-101023533D01*
X100089744Y-100974499D01*
X100089738Y-100974497D01*
X99964071Y-100949500D01*
X99964069Y-100949500D01*
X99835931Y-100949500D01*
X99835929Y-100949500D01*
X99710261Y-100974497D01*
X99710255Y-100974499D01*
X99591875Y-101023533D01*
X99591866Y-101023538D01*
X99485331Y-101094723D01*
X99485327Y-101094726D01*
X99394726Y-101185327D01*
X99394723Y-101185331D01*
X99323538Y-101291866D01*
X99323533Y-101291875D01*
X99274499Y-101410255D01*
X99274497Y-101410261D01*
X99249500Y-101535928D01*
X99249500Y-101535931D01*
X99249500Y-101664069D01*
X99249500Y-101664071D01*
X99249499Y-101664071D01*
X99274497Y-101789738D01*
X99274499Y-101789744D01*
X99323533Y-101908124D01*
X99323538Y-101908133D01*
X99394723Y-102014668D01*
X99394726Y-102014672D01*
X99485327Y-102105273D01*
X99485331Y-102105276D01*
X99591866Y-102176461D01*
X99591872Y-102176464D01*
X99591873Y-102176465D01*
X99710256Y-102225501D01*
X99710260Y-102225501D01*
X99710261Y-102225502D01*
X99835928Y-102250500D01*
X99835931Y-102250500D01*
X99964071Y-102250500D01*
X100048615Y-102233682D01*
X100089744Y-102225501D01*
X100208127Y-102176465D01*
X100314669Y-102105276D01*
X100314672Y-102105273D01*
X100333127Y-102086819D01*
X100394450Y-102053334D01*
X100420808Y-102050500D01*
X101279192Y-102050500D01*
X101346231Y-102070185D01*
X101366873Y-102086819D01*
X101385327Y-102105273D01*
X101385331Y-102105276D01*
X101491866Y-102176461D01*
X101491872Y-102176464D01*
X101491873Y-102176465D01*
X101610256Y-102225501D01*
X101662675Y-102235928D01*
X101714037Y-102246145D01*
X101775948Y-102278530D01*
X101810522Y-102339246D01*
X101806783Y-102409015D01*
X101777527Y-102455443D01*
X100459491Y-103773480D01*
X100459489Y-103773483D01*
X100435711Y-103814669D01*
X100417441Y-103846315D01*
X100399422Y-103877525D01*
X100399420Y-103877528D01*
X100387017Y-103899009D01*
X100387016Y-103899011D01*
X100387016Y-103899012D01*
X100349500Y-104039022D01*
X100349500Y-104600978D01*
X100352371Y-104611692D01*
X100385659Y-104735926D01*
X100387014Y-104740982D01*
X100387016Y-104740988D01*
X100459490Y-104866518D01*
X101806360Y-106213387D01*
X101908702Y-106272474D01*
X101931889Y-106285861D01*
X102071899Y-106323377D01*
X102071900Y-106323377D01*
X102216848Y-106323377D01*
X103437864Y-106323377D01*
X103504903Y-106343062D01*
X103506717Y-106344250D01*
X103514338Y-106349342D01*
X103632721Y-106398378D01*
X103632725Y-106398378D01*
X103632726Y-106398379D01*
X103758393Y-106423377D01*
X103758396Y-106423377D01*
X103886536Y-106423377D01*
X103971080Y-106406559D01*
X104012209Y-106398378D01*
X104130592Y-106349342D01*
X104237134Y-106278153D01*
X104327741Y-106187546D01*
X104398930Y-106081004D01*
X104447966Y-105962621D01*
X104456147Y-105921492D01*
X104472965Y-105836948D01*
X104472965Y-105708805D01*
X104447967Y-105583138D01*
X104447966Y-105583137D01*
X104447966Y-105583133D01*
X104398930Y-105464750D01*
X104398929Y-105464749D01*
X104398926Y-105464743D01*
X104327741Y-105358208D01*
X104327738Y-105358204D01*
X104237137Y-105267603D01*
X104237133Y-105267600D01*
X104130598Y-105196415D01*
X104130589Y-105196410D01*
X104012209Y-105147376D01*
X104012203Y-105147374D01*
X103886536Y-105122377D01*
X103886534Y-105122377D01*
X103758396Y-105122377D01*
X103758395Y-105122377D01*
X103755795Y-105122894D01*
X103754406Y-105122769D01*
X103752331Y-105122974D01*
X103752292Y-105122580D01*
X103686203Y-105116662D01*
X103631028Y-105073796D01*
X103607787Y-105007905D01*
X103623859Y-104939909D01*
X103628508Y-104932384D01*
X103721185Y-104793683D01*
X103721192Y-104793671D01*
X103796569Y-104611692D01*
X103796569Y-104611690D01*
X103804862Y-104570000D01*
X103001988Y-104570000D01*
X103019205Y-104560060D01*
X103075060Y-104504205D01*
X103114556Y-104435796D01*
X103135000Y-104359496D01*
X103135000Y-104280504D01*
X103114556Y-104204204D01*
X103075060Y-104135795D01*
X103019205Y-104079940D01*
X103001988Y-104070000D01*
X103804862Y-104070000D01*
X103796569Y-104028309D01*
X103796569Y-104028307D01*
X103721192Y-103846328D01*
X103721185Y-103846315D01*
X103611751Y-103682537D01*
X103611748Y-103682533D01*
X103472466Y-103543251D01*
X103472462Y-103543248D01*
X103353966Y-103464071D01*
X107249499Y-103464071D01*
X107274497Y-103589738D01*
X107274499Y-103589744D01*
X107323533Y-103708124D01*
X107323538Y-103708133D01*
X107394723Y-103814668D01*
X107394726Y-103814672D01*
X107485327Y-103905273D01*
X107485331Y-103905276D01*
X107591866Y-103976461D01*
X107591872Y-103976464D01*
X107591873Y-103976465D01*
X107710256Y-104025501D01*
X107710260Y-104025501D01*
X107710261Y-104025502D01*
X107835928Y-104050500D01*
X107835931Y-104050500D01*
X107964071Y-104050500D01*
X108053040Y-104032802D01*
X108089744Y-104025501D01*
X108208127Y-103976465D01*
X108314669Y-103905276D01*
X108405276Y-103814669D01*
X108476465Y-103708127D01*
X108525501Y-103589744D01*
X108527280Y-103580798D01*
X108559664Y-103518887D01*
X108561161Y-103517362D01*
X109391705Y-102686819D01*
X109453028Y-102653334D01*
X109479386Y-102650500D01*
X117972472Y-102650500D01*
X117972474Y-102650500D01*
X117972475Y-102650500D01*
X118112485Y-102612984D01*
X118135840Y-102599500D01*
X118238015Y-102540510D01*
X119221829Y-101556694D01*
X119283150Y-101523211D01*
X119328906Y-101521904D01*
X119330590Y-101522170D01*
X119330591Y-101522171D01*
X119353231Y-101525756D01*
X119509449Y-101550500D01*
X119509454Y-101550500D01*
X119690551Y-101550500D01*
X119782550Y-101535928D01*
X119869409Y-101522171D01*
X120041639Y-101466211D01*
X120202994Y-101383996D01*
X120349501Y-101277553D01*
X120477553Y-101149501D01*
X120583996Y-101002994D01*
X120666211Y-100841639D01*
X120722171Y-100669409D01*
X120744885Y-100526000D01*
X120750500Y-100490551D01*
X120750500Y-100309448D01*
X120725245Y-100150000D01*
X120722171Y-100130591D01*
X120672308Y-99977125D01*
X120666212Y-99958363D01*
X120666211Y-99958360D01*
X120631249Y-99889744D01*
X120583996Y-99797006D01*
X120565681Y-99771797D01*
X120477558Y-99650505D01*
X120477554Y-99650500D01*
X120349499Y-99522445D01*
X120349494Y-99522441D01*
X120202997Y-99416006D01*
X120202996Y-99416005D01*
X120202994Y-99416004D01*
X120123246Y-99375370D01*
X120041639Y-99333788D01*
X120041636Y-99333787D01*
X119869410Y-99277829D01*
X119690551Y-99249500D01*
X119690546Y-99249500D01*
X119509454Y-99249500D01*
X119509449Y-99249500D01*
X119330589Y-99277829D01*
X119158363Y-99333787D01*
X119158360Y-99333788D01*
X119050494Y-99388750D01*
X118981825Y-99401646D01*
X118917084Y-99375370D01*
X118876827Y-99318263D01*
X118873835Y-99248458D01*
X118906517Y-99190585D01*
X119209016Y-98888087D01*
X119270339Y-98854602D01*
X119296697Y-98851768D01*
X121824586Y-98851768D01*
X121891625Y-98871453D01*
X121937380Y-98924257D01*
X121947324Y-98993415D01*
X121918299Y-99056971D01*
X121872039Y-99090329D01*
X121791875Y-99123533D01*
X121791866Y-99123538D01*
X121685331Y-99194723D01*
X121685327Y-99194726D01*
X121594726Y-99285327D01*
X121594723Y-99285331D01*
X121523538Y-99391866D01*
X121523533Y-99391875D01*
X121474499Y-99510255D01*
X121474497Y-99510261D01*
X121449500Y-99635928D01*
X121449500Y-99635931D01*
X121449500Y-99764069D01*
X121449500Y-99764071D01*
X121449499Y-99764071D01*
X121474497Y-99889738D01*
X121474499Y-99889744D01*
X121523533Y-100008124D01*
X121523534Y-100008126D01*
X121523535Y-100008127D01*
X121528600Y-100015708D01*
X121549480Y-100082383D01*
X121549500Y-100084600D01*
X121549500Y-100227526D01*
X121549500Y-100372474D01*
X121587016Y-100512485D01*
X121659490Y-100638015D01*
X127661985Y-106640510D01*
X127787515Y-106712984D01*
X127927525Y-106750500D01*
X127927526Y-106750500D01*
X127927528Y-106750500D01*
X129872472Y-106750500D01*
X129872474Y-106750500D01*
X129872475Y-106750500D01*
X130012485Y-106712984D01*
X130132759Y-106643544D01*
X130170563Y-106629315D01*
X130189744Y-106625501D01*
X130308127Y-106576465D01*
X130315712Y-106571396D01*
X130382389Y-106550520D01*
X130384601Y-106550500D01*
X135342937Y-106550500D01*
X135342939Y-106550500D01*
X135342940Y-106550500D01*
X135482950Y-106512984D01*
X135504573Y-106500500D01*
X135608480Y-106440510D01*
X137002710Y-105046278D01*
X137049438Y-105016918D01*
X137062745Y-105012263D01*
X137173225Y-104930725D01*
X137254763Y-104820245D01*
X137259418Y-104806938D01*
X137288776Y-104760212D01*
X137412172Y-104636817D01*
X137473495Y-104603334D01*
X137499852Y-104600500D01*
X137564071Y-104600500D01*
X137687235Y-104576000D01*
X137689744Y-104575501D01*
X137808127Y-104526465D01*
X137914669Y-104455276D01*
X138005276Y-104364669D01*
X138076465Y-104258127D01*
X138125501Y-104139744D01*
X138145536Y-104039024D01*
X138150500Y-104014071D01*
X138150500Y-103885928D01*
X138125502Y-103760261D01*
X138125501Y-103760260D01*
X138125501Y-103760256D01*
X138076465Y-103641873D01*
X138076464Y-103641872D01*
X138076461Y-103641866D01*
X138005276Y-103535331D01*
X138005273Y-103535327D01*
X137914672Y-103444726D01*
X137914668Y-103444723D01*
X137808133Y-103373538D01*
X137808124Y-103373533D01*
X137689744Y-103324499D01*
X137689738Y-103324497D01*
X137564071Y-103299500D01*
X137564069Y-103299500D01*
X137435931Y-103299500D01*
X137435929Y-103299500D01*
X137310261Y-103324497D01*
X137310255Y-103324499D01*
X137191875Y-103373533D01*
X137191866Y-103373538D01*
X137085335Y-103444720D01*
X137085321Y-103444731D01*
X137084157Y-103445896D01*
X137058493Y-103465585D01*
X136982456Y-103509486D01*
X136982447Y-103509492D01*
X136688759Y-103803181D01*
X136627436Y-103836666D01*
X136601078Y-103839500D01*
X136367632Y-103839500D01*
X136336860Y-103842385D01*
X136336856Y-103842386D01*
X136298789Y-103855706D01*
X136229010Y-103859267D01*
X136170156Y-103826345D01*
X136117150Y-103773339D01*
X136117142Y-103773333D01*
X135974697Y-103689092D01*
X135974694Y-103689091D01*
X135815783Y-103642922D01*
X135815777Y-103642921D01*
X135778657Y-103640000D01*
X135750000Y-103640000D01*
X135750000Y-104326000D01*
X135730315Y-104393039D01*
X135677511Y-104438794D01*
X135626000Y-104450000D01*
X135500000Y-104450000D01*
X135500000Y-104576000D01*
X135480315Y-104643039D01*
X135427511Y-104688794D01*
X135376000Y-104700000D01*
X134634770Y-104700000D01*
X134635421Y-104708281D01*
X134681590Y-104867194D01*
X134681592Y-104867197D01*
X134765833Y-105009642D01*
X134765839Y-105009650D01*
X134882849Y-105126660D01*
X134882857Y-105126666D01*
X135025303Y-105210908D01*
X135027135Y-105211701D01*
X135028341Y-105212704D01*
X135032016Y-105214878D01*
X135031665Y-105215471D01*
X135080841Y-105256394D01*
X135101858Y-105323027D01*
X135083514Y-105390446D01*
X135031633Y-105437245D01*
X134977883Y-105449500D01*
X130384601Y-105449500D01*
X130317562Y-105429815D01*
X130315747Y-105428626D01*
X130308127Y-105423535D01*
X130308124Y-105423533D01*
X130308123Y-105423533D01*
X130189744Y-105374499D01*
X130189738Y-105374497D01*
X130064071Y-105349500D01*
X130064069Y-105349500D01*
X129935931Y-105349500D01*
X129935929Y-105349500D01*
X129810261Y-105374497D01*
X129810255Y-105374499D01*
X129691875Y-105423533D01*
X129691866Y-105423538D01*
X129585331Y-105494723D01*
X129585327Y-105494726D01*
X129494723Y-105585330D01*
X129488670Y-105594391D01*
X129435058Y-105639196D01*
X129385568Y-105649500D01*
X128279387Y-105649500D01*
X128212348Y-105629815D01*
X128191706Y-105613181D01*
X126778525Y-104200000D01*
X134634770Y-104200000D01*
X135250000Y-104200000D01*
X135250000Y-103640000D01*
X135221342Y-103640000D01*
X135184222Y-103642921D01*
X135184216Y-103642922D01*
X135025305Y-103689091D01*
X135025302Y-103689092D01*
X134882857Y-103773333D01*
X134882849Y-103773339D01*
X134765839Y-103890349D01*
X134765833Y-103890357D01*
X134681592Y-104032802D01*
X134681590Y-104032805D01*
X134635421Y-104191718D01*
X134634770Y-104200000D01*
X126778525Y-104200000D01*
X125742596Y-103164071D01*
X132149499Y-103164071D01*
X132174497Y-103289738D01*
X132174499Y-103289744D01*
X132223533Y-103408124D01*
X132223538Y-103408133D01*
X132294723Y-103514668D01*
X132294726Y-103514672D01*
X132385327Y-103605273D01*
X132385331Y-103605276D01*
X132491866Y-103676461D01*
X132491872Y-103676464D01*
X132491873Y-103676465D01*
X132610256Y-103725501D01*
X132610260Y-103725501D01*
X132610261Y-103725502D01*
X132735928Y-103750500D01*
X132735931Y-103750500D01*
X132864071Y-103750500D01*
X132948615Y-103733682D01*
X132989744Y-103725501D01*
X133108127Y-103676465D01*
X133214669Y-103605276D01*
X133305276Y-103514669D01*
X133376465Y-103408127D01*
X133425501Y-103289744D01*
X133450500Y-103164069D01*
X133450500Y-103054962D01*
X133470185Y-102987923D01*
X133522989Y-102942168D01*
X133550300Y-102933346D01*
X133589744Y-102925501D01*
X133708127Y-102876465D01*
X133814669Y-102805276D01*
X133905276Y-102714669D01*
X133976465Y-102608127D01*
X134025501Y-102489744D01*
X134033682Y-102448615D01*
X134050500Y-102364071D01*
X134050500Y-102235928D01*
X134025502Y-102110261D01*
X134025501Y-102110260D01*
X134025501Y-102110256D01*
X133976465Y-101991873D01*
X133976464Y-101991872D01*
X133976461Y-101991866D01*
X133905276Y-101885331D01*
X133905273Y-101885327D01*
X133814676Y-101794730D01*
X133814671Y-101794726D01*
X133814669Y-101794724D01*
X133805603Y-101788666D01*
X133760802Y-101735053D01*
X133750500Y-101685568D01*
X133750500Y-101548014D01*
X133770185Y-101480975D01*
X133786815Y-101460337D01*
X134057850Y-101189301D01*
X134119173Y-101155817D01*
X134188865Y-101160801D01*
X134244798Y-101202673D01*
X134267148Y-101252791D01*
X134274497Y-101289738D01*
X134274499Y-101289744D01*
X134323533Y-101408124D01*
X134323538Y-101408133D01*
X134394723Y-101514668D01*
X134394726Y-101514672D01*
X134485327Y-101605273D01*
X134485331Y-101605276D01*
X134591866Y-101676461D01*
X134591875Y-101676466D01*
X134618692Y-101687574D01*
X134710256Y-101725501D01*
X134710260Y-101725501D01*
X134710261Y-101725502D01*
X134835928Y-101750500D01*
X134835931Y-101750500D01*
X134964071Y-101750500D01*
X135048615Y-101733682D01*
X135089744Y-101725501D01*
X135208127Y-101676465D01*
X135314669Y-101605276D01*
X135314672Y-101605273D01*
X135333127Y-101586819D01*
X135394450Y-101553334D01*
X135420808Y-101550500D01*
X136862035Y-101550500D01*
X136929074Y-101570185D01*
X136949716Y-101586819D01*
X138613181Y-103250284D01*
X138646666Y-103311607D01*
X138649500Y-103337965D01*
X138649500Y-103364069D01*
X138649500Y-103364071D01*
X138649499Y-103364071D01*
X138674497Y-103489738D01*
X138674499Y-103489744D01*
X138723533Y-103608124D01*
X138723538Y-103608133D01*
X138794723Y-103714668D01*
X138794726Y-103714672D01*
X138885327Y-103805273D01*
X138885331Y-103805276D01*
X138991866Y-103876461D01*
X138991872Y-103876464D01*
X138991873Y-103876465D01*
X139110256Y-103925501D01*
X139110260Y-103925501D01*
X139110261Y-103925502D01*
X139235928Y-103950500D01*
X139235931Y-103950500D01*
X139364071Y-103950500D01*
X139448615Y-103933682D01*
X139489744Y-103925501D01*
X139608127Y-103876465D01*
X139714669Y-103805276D01*
X139805276Y-103714669D01*
X139826370Y-103683098D01*
X139879982Y-103638294D01*
X139949307Y-103629586D01*
X140012335Y-103659740D01*
X140017154Y-103664308D01*
X141513336Y-105160490D01*
X141513338Y-105160491D01*
X141513342Y-105160494D01*
X141616058Y-105219797D01*
X141616060Y-105219797D01*
X141616063Y-105219799D01*
X141625681Y-105222376D01*
X141625683Y-105222377D01*
X141625684Y-105222377D01*
X141647864Y-105228319D01*
X141730641Y-105250500D01*
X141779192Y-105250500D01*
X141846231Y-105270185D01*
X141866873Y-105286819D01*
X141885327Y-105305273D01*
X141885331Y-105305276D01*
X141991866Y-105376461D01*
X141991872Y-105376464D01*
X141991873Y-105376465D01*
X142110256Y-105425501D01*
X142110260Y-105425501D01*
X142110261Y-105425502D01*
X142235928Y-105450500D01*
X142235931Y-105450500D01*
X142364071Y-105450500D01*
X142448615Y-105433682D01*
X142489744Y-105425501D01*
X142608127Y-105376465D01*
X142714669Y-105305276D01*
X142805276Y-105214669D01*
X142876465Y-105108127D01*
X142925501Y-104989744D01*
X142949878Y-104867197D01*
X142950500Y-104864071D01*
X142950500Y-104735928D01*
X142925502Y-104610261D01*
X142925501Y-104610260D01*
X142925501Y-104610256D01*
X142876465Y-104491873D01*
X142876464Y-104491872D01*
X142876461Y-104491866D01*
X142805276Y-104385331D01*
X142805273Y-104385327D01*
X142714672Y-104294726D01*
X142714668Y-104294723D01*
X142608133Y-104223538D01*
X142608124Y-104223533D01*
X142489744Y-104174499D01*
X142489738Y-104174497D01*
X142364071Y-104149500D01*
X142364069Y-104149500D01*
X142235931Y-104149500D01*
X142235929Y-104149500D01*
X142110261Y-104174497D01*
X142110255Y-104174499D01*
X141991871Y-104223535D01*
X141991787Y-104223592D01*
X141991735Y-104223608D01*
X141986503Y-104226405D01*
X141985972Y-104225412D01*
X141925108Y-104244466D01*
X141857729Y-104225977D01*
X141835221Y-104208167D01*
X138923960Y-101296906D01*
X138890475Y-101235583D01*
X138895459Y-101165891D01*
X138937331Y-101109958D01*
X138964184Y-101094666D01*
X139008127Y-101076465D01*
X139114669Y-101005276D01*
X139205276Y-100914669D01*
X139276465Y-100808127D01*
X139325501Y-100689744D01*
X139335791Y-100638013D01*
X139350500Y-100564071D01*
X139350500Y-100435928D01*
X139325502Y-100310261D01*
X139325501Y-100310260D01*
X139325501Y-100310256D01*
X139276465Y-100191873D01*
X139276464Y-100191872D01*
X139276461Y-100191866D01*
X139205276Y-100085331D01*
X139205273Y-100085327D01*
X139114672Y-99994726D01*
X139114668Y-99994723D01*
X139008133Y-99923538D01*
X139008124Y-99923533D01*
X138889744Y-99874499D01*
X138889738Y-99874497D01*
X138764071Y-99849500D01*
X138764069Y-99849500D01*
X138737965Y-99849500D01*
X138670926Y-99829815D01*
X138650284Y-99813181D01*
X138376616Y-99539513D01*
X138376614Y-99539511D01*
X138311912Y-99502155D01*
X138273888Y-99480201D01*
X138261780Y-99476957D01*
X138249673Y-99473713D01*
X138249670Y-99473712D01*
X138211478Y-99463478D01*
X138159309Y-99449500D01*
X133943635Y-99449500D01*
X133853269Y-99473713D01*
X133853268Y-99473712D01*
X133829060Y-99480199D01*
X133829057Y-99480200D01*
X133726330Y-99539511D01*
X133726327Y-99539513D01*
X132339513Y-100926327D01*
X132339511Y-100926330D01*
X132280200Y-101029058D01*
X132278850Y-101034099D01*
X132278848Y-101034107D01*
X132249500Y-101143635D01*
X132249500Y-102715398D01*
X132229815Y-102782437D01*
X132228604Y-102784286D01*
X132223534Y-102791872D01*
X132174499Y-102910255D01*
X132174497Y-102910261D01*
X132149500Y-103035928D01*
X132149500Y-103035931D01*
X132149500Y-103164069D01*
X132149500Y-103164071D01*
X132149499Y-103164071D01*
X125742596Y-103164071D01*
X122708746Y-100130221D01*
X122675261Y-100068898D01*
X122680245Y-99999206D01*
X122681866Y-99995087D01*
X122682016Y-99994726D01*
X122725501Y-99889744D01*
X122737422Y-99829815D01*
X122750500Y-99764071D01*
X122750500Y-99635928D01*
X122725502Y-99510261D01*
X122725501Y-99510260D01*
X122725501Y-99510256D01*
X122676465Y-99391873D01*
X122676464Y-99391872D01*
X122676461Y-99391866D01*
X122605276Y-99285331D01*
X122605273Y-99285327D01*
X122514672Y-99194726D01*
X122514668Y-99194723D01*
X122408133Y-99123538D01*
X122408124Y-99123533D01*
X122327961Y-99090329D01*
X122273558Y-99046488D01*
X122251493Y-98980194D01*
X122268772Y-98912495D01*
X122319909Y-98864884D01*
X122375414Y-98851768D01*
X124695601Y-98851768D01*
X124762640Y-98871453D01*
X124783282Y-98888087D01*
X124801736Y-98906541D01*
X124801740Y-98906544D01*
X124908275Y-98977729D01*
X124908281Y-98977732D01*
X124908282Y-98977733D01*
X125026665Y-99026769D01*
X125026669Y-99026769D01*
X125026670Y-99026770D01*
X125152337Y-99051768D01*
X125152340Y-99051768D01*
X125280480Y-99051768D01*
X125365024Y-99034950D01*
X125406153Y-99026769D01*
X125524536Y-98977733D01*
X125631078Y-98906544D01*
X125721685Y-98815937D01*
X125792874Y-98709395D01*
X125841910Y-98591012D01*
X125866909Y-98465337D01*
X125866909Y-98337199D01*
X125866909Y-98337196D01*
X125841911Y-98211529D01*
X125841910Y-98211528D01*
X125841910Y-98211524D01*
X125792874Y-98093141D01*
X125792873Y-98093140D01*
X125792870Y-98093134D01*
X125721685Y-97986599D01*
X125721682Y-97986595D01*
X125631081Y-97895994D01*
X125631077Y-97895991D01*
X125603556Y-97877602D01*
X125558751Y-97823990D01*
X125550044Y-97754665D01*
X125580198Y-97691637D01*
X125639642Y-97654918D01*
X125672447Y-97650500D01*
X129059308Y-97650500D01*
X129059309Y-97650500D01*
X129149673Y-97626286D01*
X129173887Y-97619799D01*
X129276614Y-97560489D01*
X131050284Y-95786819D01*
X131111607Y-95753334D01*
X131137965Y-95750500D01*
X131164071Y-95750500D01*
X131248615Y-95733682D01*
X131289744Y-95725501D01*
X131408127Y-95676465D01*
X131514669Y-95605276D01*
X131605276Y-95514669D01*
X131676465Y-95408127D01*
X131725501Y-95289744D01*
X131745837Y-95187512D01*
X131750500Y-95164071D01*
X131750500Y-95035928D01*
X131725502Y-94910261D01*
X131725501Y-94910260D01*
X131725501Y-94910256D01*
X131676465Y-94791873D01*
X131676464Y-94791872D01*
X131676461Y-94791866D01*
X131605276Y-94685331D01*
X131605273Y-94685327D01*
X131514672Y-94594726D01*
X131514668Y-94594723D01*
X131408133Y-94523538D01*
X131408124Y-94523533D01*
X131289744Y-94474499D01*
X131289738Y-94474497D01*
X131164071Y-94449500D01*
X131164069Y-94449500D01*
X131035931Y-94449500D01*
X131035929Y-94449500D01*
X130910261Y-94474497D01*
X130910255Y-94474499D01*
X130791875Y-94523533D01*
X130791866Y-94523538D01*
X130685331Y-94594723D01*
X130685327Y-94594726D01*
X130594726Y-94685327D01*
X130594723Y-94685331D01*
X130523538Y-94791866D01*
X130523533Y-94791875D01*
X130474499Y-94910255D01*
X130474497Y-94910261D01*
X130449500Y-95035928D01*
X130449500Y-95062035D01*
X130429815Y-95129074D01*
X130413181Y-95149716D01*
X128849716Y-96713181D01*
X128788393Y-96746666D01*
X128762035Y-96749500D01*
X123120808Y-96749500D01*
X123053769Y-96729815D01*
X123033127Y-96713181D01*
X123014672Y-96694726D01*
X123014668Y-96694723D01*
X122908133Y-96623538D01*
X122908124Y-96623533D01*
X122789744Y-96574499D01*
X122789738Y-96574497D01*
X122664071Y-96549500D01*
X122664069Y-96549500D01*
X122535931Y-96549500D01*
X122535929Y-96549500D01*
X122410261Y-96574497D01*
X122410255Y-96574499D01*
X122291875Y-96623533D01*
X122291866Y-96623538D01*
X122185331Y-96694723D01*
X122185327Y-96694726D01*
X122094726Y-96785327D01*
X122094723Y-96785331D01*
X122023538Y-96891866D01*
X122023533Y-96891875D01*
X121974499Y-97010255D01*
X121974497Y-97010261D01*
X121949500Y-97135928D01*
X121949500Y-97135931D01*
X121949500Y-97264069D01*
X121949500Y-97264071D01*
X121949499Y-97264071D01*
X121974497Y-97389738D01*
X121974499Y-97389744D01*
X122023533Y-97508124D01*
X122023538Y-97508133D01*
X122094723Y-97614668D01*
X122094726Y-97614672D01*
X122185327Y-97705273D01*
X122185331Y-97705276D01*
X122212853Y-97723666D01*
X122257658Y-97777278D01*
X122266365Y-97846603D01*
X122236211Y-97909631D01*
X122176767Y-97946350D01*
X122143962Y-97950768D01*
X118999423Y-97950768D01*
X118909057Y-97974981D01*
X118909056Y-97974980D01*
X118884848Y-97981467D01*
X118884845Y-97981468D01*
X118782118Y-98040779D01*
X118782115Y-98040781D01*
X117545911Y-99276984D01*
X117484588Y-99310469D01*
X117419913Y-99307234D01*
X117329416Y-99277830D01*
X117329409Y-99277829D01*
X117150551Y-99249500D01*
X117150546Y-99249500D01*
X116969454Y-99249500D01*
X116969449Y-99249500D01*
X116790589Y-99277829D01*
X116618363Y-99333787D01*
X116618360Y-99333788D01*
X116457002Y-99416006D01*
X116310505Y-99522441D01*
X116310500Y-99522445D01*
X116182445Y-99650500D01*
X116182441Y-99650505D01*
X116076006Y-99797002D01*
X115993788Y-99958360D01*
X115993787Y-99958363D01*
X115937829Y-100130589D01*
X115912473Y-100290678D01*
X115882544Y-100353813D01*
X115823232Y-100390744D01*
X115753369Y-100389746D01*
X115695137Y-100351136D01*
X115667527Y-100290678D01*
X115645245Y-100150000D01*
X115642171Y-100130591D01*
X115592308Y-99977125D01*
X115586212Y-99958363D01*
X115586211Y-99958360D01*
X115551249Y-99889744D01*
X115503996Y-99797006D01*
X115485681Y-99771797D01*
X115397558Y-99650505D01*
X115397554Y-99650500D01*
X115269499Y-99522445D01*
X115269494Y-99522441D01*
X115122997Y-99416006D01*
X115122996Y-99416005D01*
X115122994Y-99416004D01*
X115043246Y-99375370D01*
X114961639Y-99333788D01*
X114961636Y-99333787D01*
X114789410Y-99277829D01*
X114610551Y-99249500D01*
X114610546Y-99249500D01*
X114429454Y-99249500D01*
X114429449Y-99249500D01*
X114250589Y-99277829D01*
X114078363Y-99333787D01*
X114078360Y-99333788D01*
X113917002Y-99416006D01*
X113770505Y-99522441D01*
X113770500Y-99522445D01*
X113642445Y-99650500D01*
X113642441Y-99650505D01*
X113554318Y-99771797D01*
X113498988Y-99814463D01*
X113429375Y-99820442D01*
X113367580Y-99787836D01*
X113333223Y-99726998D01*
X113330000Y-99698912D01*
X113330000Y-99502172D01*
X113329999Y-99502155D01*
X113323598Y-99442627D01*
X113323596Y-99442620D01*
X113273354Y-99307913D01*
X113273350Y-99307906D01*
X113187190Y-99192812D01*
X113187187Y-99192809D01*
X113072093Y-99106649D01*
X113072086Y-99106645D01*
X112937379Y-99056403D01*
X112937372Y-99056401D01*
X112877844Y-99050000D01*
X112230000Y-99050000D01*
X112230000Y-99966988D01*
X112172993Y-99934075D01*
X112045826Y-99900000D01*
X111914174Y-99900000D01*
X111787007Y-99934075D01*
X111730000Y-99966988D01*
X111730000Y-99050000D01*
X111082155Y-99050000D01*
X111022627Y-99056401D01*
X111022620Y-99056403D01*
X110887913Y-99106645D01*
X110887906Y-99106649D01*
X110772812Y-99192809D01*
X110772809Y-99192812D01*
X110686649Y-99307906D01*
X110686645Y-99307913D01*
X110636403Y-99442620D01*
X110636401Y-99442627D01*
X110630000Y-99502155D01*
X110630000Y-100150000D01*
X111546988Y-100150000D01*
X111514075Y-100207007D01*
X111480000Y-100334174D01*
X111480000Y-100465826D01*
X111514075Y-100592993D01*
X111546988Y-100650000D01*
X110630000Y-100650000D01*
X110630000Y-101297844D01*
X110636401Y-101357372D01*
X110636403Y-101357382D01*
X110645648Y-101382168D01*
X110650632Y-101451859D01*
X110617146Y-101513182D01*
X110555823Y-101546666D01*
X110529466Y-101549500D01*
X109127525Y-101549500D01*
X109064484Y-101566391D01*
X109064484Y-101566392D01*
X108987515Y-101587016D01*
X108987514Y-101587016D01*
X108987512Y-101587017D01*
X108861989Y-101659487D01*
X108861984Y-101659491D01*
X107782690Y-102738783D01*
X107721367Y-102772268D01*
X107719208Y-102772718D01*
X107710255Y-102774499D01*
X107710252Y-102774500D01*
X107591876Y-102823533D01*
X107591866Y-102823538D01*
X107485331Y-102894723D01*
X107485327Y-102894726D01*
X107394726Y-102985327D01*
X107394723Y-102985331D01*
X107323538Y-103091866D01*
X107323533Y-103091875D01*
X107274499Y-103210255D01*
X107274497Y-103210261D01*
X107249500Y-103335928D01*
X107249500Y-103335931D01*
X107249500Y-103464069D01*
X107249500Y-103464071D01*
X107249499Y-103464071D01*
X103353966Y-103464071D01*
X103308684Y-103433814D01*
X103308671Y-103433807D01*
X103126693Y-103358430D01*
X103126681Y-103358427D01*
X102933495Y-103320000D01*
X102769384Y-103320000D01*
X102702345Y-103300315D01*
X102656590Y-103247511D01*
X102646646Y-103178353D01*
X102675671Y-103114797D01*
X102681703Y-103108319D01*
X102856678Y-102933344D01*
X103040510Y-102749512D01*
X103112984Y-102623982D01*
X103132941Y-102549501D01*
X103150500Y-102483972D01*
X103150500Y-97527525D01*
X103112984Y-97387515D01*
X103112982Y-97387512D01*
X103112983Y-97387512D01*
X103105115Y-97373885D01*
X103105113Y-97373883D01*
X103041713Y-97264069D01*
X103040510Y-97261985D01*
X102660206Y-96881681D01*
X102626721Y-96820358D01*
X102631705Y-96750666D01*
X102673577Y-96694733D01*
X102739041Y-96670316D01*
X102747887Y-96670000D01*
X102933492Y-96670000D01*
X102933495Y-96669999D01*
X103126681Y-96631572D01*
X103126693Y-96631569D01*
X103308671Y-96556192D01*
X103308684Y-96556185D01*
X103472462Y-96446751D01*
X103472466Y-96446748D01*
X103611748Y-96307466D01*
X103611751Y-96307462D01*
X103721185Y-96143684D01*
X103721192Y-96143671D01*
X103796569Y-95961692D01*
X103796569Y-95961690D01*
X103804862Y-95920000D01*
X103001988Y-95920000D01*
X103019205Y-95910060D01*
X103075060Y-95854205D01*
X103114556Y-95785796D01*
X103135000Y-95709496D01*
X103135000Y-95630504D01*
X103114556Y-95554204D01*
X103075060Y-95485795D01*
X103019205Y-95429940D01*
X103001988Y-95420000D01*
X103804862Y-95420000D01*
X103796569Y-95378309D01*
X103796569Y-95378307D01*
X103721192Y-95196328D01*
X103721185Y-95196315D01*
X103611751Y-95032537D01*
X103611748Y-95032533D01*
X103472466Y-94893251D01*
X103472462Y-94893248D01*
X103308684Y-94783814D01*
X103308671Y-94783807D01*
X103126693Y-94708430D01*
X103126681Y-94708427D01*
X102933495Y-94670000D01*
X102707887Y-94670000D01*
X102640848Y-94650315D01*
X102595093Y-94597511D01*
X102585149Y-94528353D01*
X102614174Y-94464797D01*
X102620206Y-94458319D01*
X102629025Y-94449500D01*
X103940510Y-93138015D01*
X104012984Y-93012485D01*
X104050500Y-92872475D01*
X104050500Y-89598131D01*
X104070185Y-89531092D01*
X104101618Y-89497811D01*
X104129494Y-89477558D01*
X104129492Y-89477558D01*
X104129501Y-89477553D01*
X104257553Y-89349501D01*
X104363996Y-89202994D01*
X104446211Y-89041639D01*
X104502171Y-88869409D01*
X104516422Y-88779425D01*
X104527527Y-88709321D01*
X104557456Y-88646186D01*
X104616768Y-88609255D01*
X104686630Y-88610253D01*
X104744863Y-88648863D01*
X104772473Y-88709321D01*
X104797829Y-88869410D01*
X104853787Y-89041636D01*
X104853788Y-89041639D01*
X104887510Y-89107820D01*
X104928513Y-89188293D01*
X104936006Y-89202997D01*
X105042441Y-89349494D01*
X105042445Y-89349499D01*
X105170500Y-89477554D01*
X105170505Y-89477558D01*
X105280361Y-89557372D01*
X105317006Y-89583996D01*
X105421793Y-89637388D01*
X105478360Y-89666211D01*
X105478363Y-89666212D01*
X105557997Y-89692086D01*
X105650591Y-89722171D01*
X105733429Y-89735291D01*
X105829449Y-89750500D01*
X105829454Y-89750500D01*
X106010551Y-89750500D01*
X106097259Y-89736765D01*
X106189409Y-89722171D01*
X106361639Y-89666211D01*
X106522994Y-89583996D01*
X106669501Y-89477553D01*
X106797553Y-89349501D01*
X106903996Y-89202994D01*
X106986211Y-89041639D01*
X107042171Y-88869409D01*
X107056422Y-88779425D01*
X107067527Y-88709321D01*
X107097456Y-88646186D01*
X107156768Y-88609255D01*
X107226630Y-88610253D01*
X107284863Y-88648863D01*
X107312473Y-88709321D01*
X107337829Y-88869410D01*
X107393787Y-89041636D01*
X107393788Y-89041639D01*
X107427510Y-89107820D01*
X107468513Y-89188293D01*
X107476006Y-89202997D01*
X107582441Y-89349494D01*
X107582445Y-89349499D01*
X107710500Y-89477554D01*
X107710505Y-89477558D01*
X107820361Y-89557372D01*
X107857006Y-89583996D01*
X107961793Y-89637388D01*
X108018360Y-89666211D01*
X108018363Y-89666212D01*
X108097997Y-89692086D01*
X108190591Y-89722171D01*
X108273429Y-89735291D01*
X108369449Y-89750500D01*
X108369454Y-89750500D01*
X108550551Y-89750500D01*
X108637259Y-89736765D01*
X108729409Y-89722171D01*
X108901639Y-89666211D01*
X109062994Y-89583996D01*
X109209501Y-89477553D01*
X109337553Y-89349501D01*
X109443996Y-89202994D01*
X109526211Y-89041639D01*
X109582171Y-88869409D01*
X109596422Y-88779425D01*
X109607527Y-88709321D01*
X109637456Y-88646186D01*
X109696768Y-88609255D01*
X109766630Y-88610253D01*
X109824863Y-88648863D01*
X109852473Y-88709321D01*
X109877829Y-88869410D01*
X109933787Y-89041636D01*
X109933788Y-89041639D01*
X109967510Y-89107820D01*
X110008513Y-89188293D01*
X110016006Y-89202997D01*
X110122441Y-89349494D01*
X110122445Y-89349499D01*
X110250500Y-89477554D01*
X110250505Y-89477558D01*
X110360361Y-89557372D01*
X110397006Y-89583996D01*
X110501793Y-89637388D01*
X110558360Y-89666211D01*
X110558363Y-89666212D01*
X110637997Y-89692086D01*
X110730591Y-89722171D01*
X110813429Y-89735291D01*
X110909449Y-89750500D01*
X110909454Y-89750500D01*
X111090551Y-89750500D01*
X111177259Y-89736765D01*
X111269409Y-89722171D01*
X111441639Y-89666211D01*
X111602994Y-89583996D01*
X111749501Y-89477553D01*
X111877553Y-89349501D01*
X111983996Y-89202994D01*
X112066211Y-89041639D01*
X112122171Y-88869409D01*
X112136422Y-88779425D01*
X112147527Y-88709321D01*
X112177456Y-88646186D01*
X112236768Y-88609255D01*
X112306630Y-88610253D01*
X112364863Y-88648863D01*
X112392473Y-88709321D01*
X112417829Y-88869410D01*
X112473787Y-89041636D01*
X112473788Y-89041639D01*
X112507510Y-89107820D01*
X112548513Y-89188293D01*
X112556006Y-89202997D01*
X112662441Y-89349494D01*
X112662445Y-89349499D01*
X112790500Y-89477554D01*
X112790505Y-89477558D01*
X112900361Y-89557372D01*
X112937006Y-89583996D01*
X113041793Y-89637388D01*
X113098360Y-89666211D01*
X113098363Y-89666212D01*
X113177997Y-89692086D01*
X113270591Y-89722171D01*
X113353429Y-89735291D01*
X113449449Y-89750500D01*
X113449454Y-89750500D01*
X113630551Y-89750500D01*
X113717259Y-89736765D01*
X113809409Y-89722171D01*
X113981639Y-89666211D01*
X114142994Y-89583996D01*
X114289501Y-89477553D01*
X114417553Y-89349501D01*
X114523996Y-89202994D01*
X114606211Y-89041639D01*
X114662171Y-88869409D01*
X114676422Y-88779425D01*
X114687527Y-88709321D01*
X114717456Y-88646186D01*
X114776768Y-88609255D01*
X114846630Y-88610253D01*
X114904863Y-88648863D01*
X114932473Y-88709321D01*
X114957829Y-88869410D01*
X115013787Y-89041636D01*
X115013788Y-89041639D01*
X115047510Y-89107820D01*
X115088513Y-89188293D01*
X115096006Y-89202997D01*
X115202441Y-89349494D01*
X115202445Y-89349499D01*
X115330500Y-89477554D01*
X115330505Y-89477558D01*
X115440361Y-89557372D01*
X115477006Y-89583996D01*
X115581793Y-89637388D01*
X115638360Y-89666211D01*
X115638363Y-89666212D01*
X115717997Y-89692086D01*
X115810591Y-89722171D01*
X115893429Y-89735291D01*
X115989449Y-89750500D01*
X115989454Y-89750500D01*
X116170551Y-89750500D01*
X116257259Y-89736765D01*
X116349409Y-89722171D01*
X116521639Y-89666211D01*
X116682994Y-89583996D01*
X116829501Y-89477553D01*
X116957553Y-89349501D01*
X117063996Y-89202994D01*
X117146211Y-89041639D01*
X117202171Y-88869409D01*
X117216422Y-88779425D01*
X117227527Y-88709321D01*
X117257456Y-88646186D01*
X117316768Y-88609255D01*
X117386630Y-88610253D01*
X117444863Y-88648863D01*
X117472473Y-88709321D01*
X117497829Y-88869410D01*
X117553787Y-89041636D01*
X117553788Y-89041639D01*
X117587510Y-89107820D01*
X117628513Y-89188293D01*
X117636006Y-89202997D01*
X117742441Y-89349494D01*
X117742445Y-89349499D01*
X117870500Y-89477554D01*
X117870505Y-89477558D01*
X117980361Y-89557372D01*
X118017006Y-89583996D01*
X118121793Y-89637388D01*
X118178360Y-89666211D01*
X118178363Y-89666212D01*
X118257997Y-89692086D01*
X118350591Y-89722171D01*
X118433429Y-89735291D01*
X118529449Y-89750500D01*
X118529454Y-89750500D01*
X118710551Y-89750500D01*
X118797259Y-89736765D01*
X118889409Y-89722171D01*
X119061639Y-89666211D01*
X119222994Y-89583996D01*
X119369501Y-89477553D01*
X119497553Y-89349501D01*
X119603996Y-89202994D01*
X119686211Y-89041639D01*
X119742171Y-88869409D01*
X119756422Y-88779425D01*
X119767527Y-88709321D01*
X119797456Y-88646186D01*
X119856768Y-88609255D01*
X119926630Y-88610253D01*
X119984863Y-88648863D01*
X120012473Y-88709321D01*
X120037829Y-88869410D01*
X120093787Y-89041636D01*
X120093788Y-89041639D01*
X120127510Y-89107820D01*
X120168513Y-89188293D01*
X120176006Y-89202997D01*
X120282441Y-89349494D01*
X120282445Y-89349499D01*
X120410500Y-89477554D01*
X120410505Y-89477558D01*
X120520361Y-89557372D01*
X120557006Y-89583996D01*
X120661793Y-89637388D01*
X120718360Y-89666211D01*
X120718363Y-89666212D01*
X120797997Y-89692086D01*
X120890591Y-89722171D01*
X120973429Y-89735291D01*
X121069449Y-89750500D01*
X121069454Y-89750500D01*
X121250551Y-89750500D01*
X121337259Y-89736765D01*
X121429409Y-89722171D01*
X121601639Y-89666211D01*
X121762994Y-89583996D01*
X121909501Y-89477553D01*
X122037553Y-89349501D01*
X122143996Y-89202994D01*
X122226211Y-89041639D01*
X122282171Y-88869409D01*
X122296422Y-88779425D01*
X122307527Y-88709321D01*
X122337456Y-88646186D01*
X122396768Y-88609255D01*
X122466630Y-88610253D01*
X122524863Y-88648863D01*
X122552473Y-88709321D01*
X122577829Y-88869410D01*
X122633787Y-89041636D01*
X122633788Y-89041639D01*
X122667510Y-89107820D01*
X122708513Y-89188293D01*
X122716006Y-89202997D01*
X122822441Y-89349494D01*
X122822445Y-89349499D01*
X122950500Y-89477554D01*
X122950505Y-89477558D01*
X123060361Y-89557372D01*
X123097006Y-89583996D01*
X123201793Y-89637388D01*
X123258360Y-89666211D01*
X123258363Y-89666212D01*
X123337997Y-89692086D01*
X123430591Y-89722171D01*
X123513429Y-89735291D01*
X123609449Y-89750500D01*
X123609454Y-89750500D01*
X123790551Y-89750500D01*
X123877259Y-89736765D01*
X123969409Y-89722171D01*
X124141639Y-89666211D01*
X124302994Y-89583996D01*
X124449501Y-89477553D01*
X124577553Y-89349501D01*
X124683996Y-89202994D01*
X124766211Y-89041639D01*
X124822171Y-88869409D01*
X124836422Y-88779425D01*
X124847527Y-88709321D01*
X124877456Y-88646186D01*
X124936768Y-88609255D01*
X125006630Y-88610253D01*
X125064863Y-88648863D01*
X125092473Y-88709321D01*
X125117829Y-88869410D01*
X125173787Y-89041636D01*
X125173788Y-89041639D01*
X125207510Y-89107820D01*
X125248513Y-89188293D01*
X125256006Y-89202997D01*
X125362441Y-89349494D01*
X125362445Y-89349499D01*
X125490500Y-89477554D01*
X125490505Y-89477558D01*
X125600361Y-89557372D01*
X125637006Y-89583996D01*
X125741793Y-89637388D01*
X125798360Y-89666211D01*
X125798363Y-89666212D01*
X125877997Y-89692086D01*
X125970591Y-89722171D01*
X126053429Y-89735291D01*
X126149449Y-89750500D01*
X126149454Y-89750500D01*
X126330551Y-89750500D01*
X126417259Y-89736765D01*
X126509409Y-89722171D01*
X126681639Y-89666211D01*
X126842994Y-89583996D01*
X126989501Y-89477553D01*
X127117553Y-89349501D01*
X127223996Y-89202994D01*
X127306211Y-89041639D01*
X127362171Y-88869409D01*
X127376422Y-88779425D01*
X127387527Y-88709321D01*
X127417456Y-88646186D01*
X127476768Y-88609255D01*
X127546630Y-88610253D01*
X127604863Y-88648863D01*
X127632473Y-88709321D01*
X127657829Y-88869410D01*
X127713787Y-89041636D01*
X127713788Y-89041639D01*
X127747510Y-89107820D01*
X127788513Y-89188293D01*
X127796006Y-89202997D01*
X127902441Y-89349494D01*
X127902445Y-89349499D01*
X128030500Y-89477554D01*
X128030505Y-89477558D01*
X128140361Y-89557372D01*
X128177006Y-89583996D01*
X128281793Y-89637388D01*
X128338360Y-89666211D01*
X128338363Y-89666212D01*
X128417997Y-89692086D01*
X128510591Y-89722171D01*
X128593429Y-89735291D01*
X128689449Y-89750500D01*
X128689454Y-89750500D01*
X128870551Y-89750500D01*
X128957259Y-89736765D01*
X129049409Y-89722171D01*
X129221639Y-89666211D01*
X129382994Y-89583996D01*
X129529501Y-89477553D01*
X129657553Y-89349501D01*
X129763996Y-89202994D01*
X129846211Y-89041639D01*
X129902171Y-88869409D01*
X129916422Y-88779425D01*
X129927527Y-88709321D01*
X129957456Y-88646186D01*
X130016768Y-88609255D01*
X130086630Y-88610253D01*
X130144863Y-88648863D01*
X130172473Y-88709321D01*
X130197829Y-88869410D01*
X130253787Y-89041636D01*
X130253788Y-89041639D01*
X130287510Y-89107820D01*
X130328513Y-89188293D01*
X130336006Y-89202997D01*
X130442441Y-89349494D01*
X130442445Y-89349499D01*
X130570500Y-89477554D01*
X130570505Y-89477558D01*
X130680361Y-89557372D01*
X130717006Y-89583996D01*
X130821793Y-89637388D01*
X130878360Y-89666211D01*
X130878363Y-89666212D01*
X130957997Y-89692086D01*
X131050591Y-89722171D01*
X131133429Y-89735291D01*
X131229449Y-89750500D01*
X131229454Y-89750500D01*
X131410551Y-89750500D01*
X131497259Y-89736765D01*
X131589409Y-89722171D01*
X131761639Y-89666211D01*
X131922994Y-89583996D01*
X132069501Y-89477553D01*
X132197553Y-89349501D01*
X132303996Y-89202994D01*
X132386211Y-89041639D01*
X132442171Y-88869409D01*
X132456422Y-88779425D01*
X132467527Y-88709321D01*
X132497456Y-88646186D01*
X132556768Y-88609255D01*
X132626630Y-88610253D01*
X132684863Y-88648863D01*
X132712473Y-88709321D01*
X132737829Y-88869410D01*
X132793787Y-89041636D01*
X132793788Y-89041639D01*
X132827510Y-89107820D01*
X132868513Y-89188293D01*
X132876006Y-89202997D01*
X132982441Y-89349494D01*
X132982445Y-89349499D01*
X133110500Y-89477554D01*
X133110505Y-89477558D01*
X133220361Y-89557372D01*
X133257006Y-89583996D01*
X133361793Y-89637388D01*
X133418360Y-89666211D01*
X133418363Y-89666212D01*
X133497997Y-89692086D01*
X133590591Y-89722171D01*
X133673429Y-89735291D01*
X133769449Y-89750500D01*
X133769454Y-89750500D01*
X133950551Y-89750500D01*
X134037259Y-89736765D01*
X134129409Y-89722171D01*
X134301639Y-89666211D01*
X134462994Y-89583996D01*
X134609501Y-89477553D01*
X134737553Y-89349501D01*
X134843996Y-89202994D01*
X134926211Y-89041639D01*
X134982171Y-88869409D01*
X134996422Y-88779425D01*
X135007527Y-88709321D01*
X135037456Y-88646186D01*
X135096768Y-88609255D01*
X135166630Y-88610253D01*
X135224863Y-88648863D01*
X135252473Y-88709321D01*
X135277829Y-88869410D01*
X135333787Y-89041636D01*
X135333788Y-89041639D01*
X135367510Y-89107820D01*
X135408513Y-89188293D01*
X135416006Y-89202997D01*
X135522441Y-89349494D01*
X135522445Y-89349499D01*
X135650500Y-89477554D01*
X135650505Y-89477558D01*
X135760361Y-89557372D01*
X135797006Y-89583996D01*
X135901793Y-89637388D01*
X135958360Y-89666211D01*
X135958363Y-89666212D01*
X136037997Y-89692086D01*
X136130591Y-89722171D01*
X136213429Y-89735291D01*
X136309449Y-89750500D01*
X136309454Y-89750500D01*
X136490551Y-89750500D01*
X136577259Y-89736765D01*
X136669409Y-89722171D01*
X136841639Y-89666211D01*
X137002994Y-89583996D01*
X137149501Y-89477553D01*
X137277553Y-89349501D01*
X137383996Y-89202994D01*
X137466211Y-89041639D01*
X137522171Y-88869409D01*
X137536422Y-88779425D01*
X137547527Y-88709321D01*
X137577456Y-88646186D01*
X137636768Y-88609255D01*
X137706630Y-88610253D01*
X137764863Y-88648863D01*
X137792473Y-88709321D01*
X137817829Y-88869410D01*
X137873787Y-89041636D01*
X137873788Y-89041639D01*
X137907510Y-89107820D01*
X137948513Y-89188293D01*
X137956006Y-89202997D01*
X138062441Y-89349494D01*
X138062445Y-89349499D01*
X138190500Y-89477554D01*
X138190505Y-89477558D01*
X138300361Y-89557372D01*
X138337006Y-89583996D01*
X138441793Y-89637388D01*
X138498360Y-89666211D01*
X138498363Y-89666212D01*
X138577997Y-89692086D01*
X138670591Y-89722171D01*
X138753429Y-89735291D01*
X138849449Y-89750500D01*
X138849454Y-89750500D01*
X139030551Y-89750500D01*
X139117259Y-89736765D01*
X139209409Y-89722171D01*
X139381639Y-89666211D01*
X139542994Y-89583996D01*
X139689501Y-89477553D01*
X139817553Y-89349501D01*
X139923996Y-89202994D01*
X140006211Y-89041639D01*
X140062171Y-88869409D01*
X140076422Y-88779425D01*
X140087527Y-88709321D01*
X140117456Y-88646186D01*
X140176768Y-88609255D01*
X140246630Y-88610253D01*
X140304863Y-88648863D01*
X140332473Y-88709321D01*
X140357829Y-88869410D01*
X140413787Y-89041636D01*
X140413788Y-89041639D01*
X140447510Y-89107820D01*
X140488513Y-89188293D01*
X140496006Y-89202997D01*
X140602441Y-89349494D01*
X140602445Y-89349499D01*
X140730500Y-89477554D01*
X140730505Y-89477558D01*
X140840361Y-89557372D01*
X140877006Y-89583996D01*
X140981793Y-89637388D01*
X141038360Y-89666211D01*
X141038363Y-89666212D01*
X141117997Y-89692086D01*
X141210591Y-89722171D01*
X141293429Y-89735291D01*
X141389449Y-89750500D01*
X141389454Y-89750500D01*
X141570551Y-89750500D01*
X141657259Y-89736765D01*
X141749409Y-89722171D01*
X141921639Y-89666211D01*
X142082994Y-89583996D01*
X142229501Y-89477553D01*
X142357553Y-89349501D01*
X142463996Y-89202994D01*
X142546211Y-89041639D01*
X142602171Y-88869409D01*
X142616422Y-88779425D01*
X142627527Y-88709321D01*
X142657456Y-88646186D01*
X142716768Y-88609255D01*
X142786630Y-88610253D01*
X142844863Y-88648863D01*
X142872473Y-88709321D01*
X142897829Y-88869410D01*
X142953787Y-89041636D01*
X142953788Y-89041639D01*
X142987510Y-89107820D01*
X143028513Y-89188293D01*
X143036006Y-89202997D01*
X143142441Y-89349494D01*
X143142445Y-89349499D01*
X143270500Y-89477554D01*
X143270505Y-89477558D01*
X143380361Y-89557372D01*
X143417006Y-89583996D01*
X143521793Y-89637388D01*
X143578360Y-89666211D01*
X143578363Y-89666212D01*
X143657997Y-89692086D01*
X143750591Y-89722171D01*
X143833429Y-89735291D01*
X143929449Y-89750500D01*
X143929454Y-89750500D01*
X144110551Y-89750500D01*
X144197259Y-89736765D01*
X144289409Y-89722171D01*
X144461639Y-89666211D01*
X144622994Y-89583996D01*
X144769501Y-89477553D01*
X144897553Y-89349501D01*
X145003996Y-89202994D01*
X145086211Y-89041639D01*
X145142171Y-88869409D01*
X145156422Y-88779425D01*
X145167527Y-88709321D01*
X145197456Y-88646186D01*
X145256768Y-88609255D01*
X145326630Y-88610253D01*
X145384863Y-88648863D01*
X145412473Y-88709321D01*
X145437829Y-88869410D01*
X145493787Y-89041636D01*
X145493788Y-89041639D01*
X145527510Y-89107820D01*
X145568513Y-89188293D01*
X145576006Y-89202997D01*
X145682441Y-89349494D01*
X145682445Y-89349499D01*
X145810500Y-89477554D01*
X145810505Y-89477558D01*
X145920361Y-89557372D01*
X145957006Y-89583996D01*
X146061793Y-89637388D01*
X146118360Y-89666211D01*
X146118363Y-89666212D01*
X146197997Y-89692086D01*
X146290591Y-89722171D01*
X146373429Y-89735291D01*
X146469449Y-89750500D01*
X146469454Y-89750500D01*
X146650551Y-89750500D01*
X146737259Y-89736765D01*
X146829409Y-89722171D01*
X147001639Y-89666211D01*
X147162994Y-89583996D01*
X147309501Y-89477553D01*
X147437553Y-89349501D01*
X147543996Y-89202994D01*
X147626211Y-89041639D01*
X147682171Y-88869409D01*
X147696422Y-88779425D01*
X147707527Y-88709321D01*
X147737456Y-88646186D01*
X147796768Y-88609255D01*
X147866630Y-88610253D01*
X147924863Y-88648863D01*
X147952473Y-88709321D01*
X147977829Y-88869410D01*
X148033787Y-89041636D01*
X148033788Y-89041639D01*
X148067510Y-89107820D01*
X148108513Y-89188293D01*
X148116006Y-89202997D01*
X148222441Y-89349494D01*
X148222445Y-89349499D01*
X148350500Y-89477554D01*
X148350505Y-89477558D01*
X148460361Y-89557372D01*
X148497006Y-89583996D01*
X148601793Y-89637388D01*
X148658360Y-89666211D01*
X148658363Y-89666212D01*
X148737997Y-89692086D01*
X148830591Y-89722171D01*
X148913429Y-89735291D01*
X149009449Y-89750500D01*
X149009454Y-89750500D01*
X149190551Y-89750500D01*
X149277259Y-89736765D01*
X149369409Y-89722171D01*
X149541639Y-89666211D01*
X149702994Y-89583996D01*
X149849501Y-89477553D01*
X149977553Y-89349501D01*
X150083996Y-89202994D01*
X150166211Y-89041639D01*
X150222171Y-88869409D01*
X150236422Y-88779425D01*
X150247527Y-88709321D01*
X150277456Y-88646186D01*
X150336768Y-88609255D01*
X150406630Y-88610253D01*
X150464863Y-88648863D01*
X150492473Y-88709321D01*
X150517829Y-88869410D01*
X150573787Y-89041636D01*
X150573788Y-89041639D01*
X150607510Y-89107820D01*
X150648513Y-89188293D01*
X150656006Y-89202997D01*
X150762441Y-89349494D01*
X150762445Y-89349499D01*
X150890500Y-89477554D01*
X150890505Y-89477558D01*
X151000361Y-89557372D01*
X151037006Y-89583996D01*
X151141793Y-89637388D01*
X151198360Y-89666211D01*
X151198363Y-89666212D01*
X151277997Y-89692086D01*
X151370591Y-89722171D01*
X151453429Y-89735291D01*
X151549449Y-89750500D01*
X151549454Y-89750500D01*
X151730551Y-89750500D01*
X151817259Y-89736765D01*
X151909409Y-89722171D01*
X152081639Y-89666211D01*
X152242994Y-89583996D01*
X152389501Y-89477553D01*
X152517553Y-89349501D01*
X152623996Y-89202994D01*
X152706211Y-89041639D01*
X152762171Y-88869409D01*
X152776422Y-88779425D01*
X152787527Y-88709321D01*
X152817456Y-88646186D01*
X152876768Y-88609255D01*
X152946630Y-88610253D01*
X153004863Y-88648863D01*
X153032473Y-88709321D01*
X153057829Y-88869410D01*
X153113787Y-89041636D01*
X153113788Y-89041639D01*
X153147510Y-89107820D01*
X153188513Y-89188293D01*
X153196006Y-89202997D01*
X153302441Y-89349494D01*
X153302445Y-89349499D01*
X153430500Y-89477554D01*
X153430505Y-89477558D01*
X153540361Y-89557372D01*
X153577006Y-89583996D01*
X153681793Y-89637388D01*
X153738360Y-89666211D01*
X153738363Y-89666212D01*
X153817997Y-89692086D01*
X153910591Y-89722171D01*
X153993429Y-89735291D01*
X154089449Y-89750500D01*
X154089454Y-89750500D01*
X154270551Y-89750500D01*
X154357259Y-89736765D01*
X154449409Y-89722171D01*
X154621639Y-89666211D01*
X154782994Y-89583996D01*
X154929501Y-89477553D01*
X155057553Y-89349501D01*
X155163996Y-89202994D01*
X155246211Y-89041639D01*
X155302171Y-88869409D01*
X155316422Y-88779425D01*
X155327527Y-88709321D01*
X155357456Y-88646186D01*
X155416768Y-88609255D01*
X155486630Y-88610253D01*
G37*
%TD.AperFunction*%
%TD*%
M02*
