%TF.GenerationSoftware,KiCad,Pcbnew,10.0.6*%
%TF.CreationDate,2026-10-09T11:19:04-06:00*%
%TF.ProjectId,STM32H7A3RGT6_Devboard,53544d33-3248-4374-9133-524754365f44,rev?*%
%TF.SameCoordinates,Original*%
%TF.FileFunction,Soldermask,Bot*%
%TF.FilePolarity,Negative*%
%FSLAX46Y46*%
G04 Gerber Fmt 4.6, Leading zero omitted, Abs format (unit mm)*
G04 Created by KiCad (PCBNEW 10.0.6) date 2026-10-09 11:19:04*
%MOMM*%
%LPD*%
G01*
G04 APERTURE LIST*
G04 Aperture macros list*
%AMRoundRect*
0 Rectangle with rounded corners*
0 $1 Rounding radius*
0 $2 $3 $4 $5 $6 $7 $8 $9 X,Y pos of 4 corners*
0 Add a 4 corners polygon primitive as box body*
4,1,4,$2,$3,$4,$5,$6,$7,$8,$9,$2,$3,0*
0 Add four circle primitives for the rounded corners*
1,1,$1+$1,$2,$3*
1,1,$1+$1,$4,$5*
1,1,$1+$1,$6,$7*
1,1,$1+$1,$8,$9*
0 Add four rect primitives between the rounded corners*
20,1,$1+$1,$2,$3,$4,$5,0*
20,1,$1+$1,$4,$5,$6,$7,0*
20,1,$1+$1,$6,$7,$8,$9,0*
20,1,$1+$1,$8,$9,$2,$3,0*%
G04 Aperture macros list end*
%ADD10R,1.700000X1.700000*%
%ADD11C,1.700000*%
%ADD12O,1.800000X1.000000*%
%ADD13O,2.200000X1.000000*%
%ADD14RoundRect,0.155000X0.212500X0.155000X-0.212500X0.155000X-0.212500X-0.155000X0.212500X-0.155000X0*%
G04 APERTURE END LIST*
D10*
%TO.C,J2*%
X111980000Y-100400000D03*
D11*
X114520000Y-100400000D03*
X117060000Y-100400000D03*
X119600000Y-100400000D03*
%TD*%
D12*
%TO.C,J1*%
X102435000Y-95670000D03*
D13*
X98425000Y-95675000D03*
D12*
X102435000Y-104320000D03*
D13*
X98430000Y-104320000D03*
%TD*%
D14*
%TO.C,C10*%
X136635000Y-104450000D03*
X135500000Y-104450000D03*
%TD*%
D10*
%TO.C,J4*%
X98300000Y-111400000D03*
D11*
X100840000Y-111400000D03*
X103380000Y-111400000D03*
X105920000Y-111400000D03*
X108460000Y-111400000D03*
X111000000Y-111400000D03*
X113540000Y-111400000D03*
X116080000Y-111400000D03*
X118620000Y-111400000D03*
X121160000Y-111400000D03*
X123700000Y-111400000D03*
X126240000Y-111400000D03*
X128780000Y-111400000D03*
X131320000Y-111400000D03*
X133860000Y-111400000D03*
X136400000Y-111400000D03*
X138940000Y-111400000D03*
X141480000Y-111400000D03*
X144020000Y-111400000D03*
X146560000Y-111400000D03*
X149100000Y-111400000D03*
X151640000Y-111400000D03*
X154180000Y-111400000D03*
X156720000Y-111400000D03*
D10*
X159260000Y-111400000D03*
%TD*%
%TO.C,J3*%
X98300000Y-88600000D03*
D11*
X100840000Y-88600000D03*
X103380000Y-88600000D03*
X105920000Y-88600000D03*
X108460000Y-88600000D03*
X111000000Y-88600000D03*
X113540000Y-88600000D03*
X116080000Y-88600000D03*
X118620000Y-88600000D03*
X121160000Y-88600000D03*
X123700000Y-88600000D03*
X126240000Y-88600000D03*
X128780000Y-88600000D03*
X131320000Y-88600000D03*
X133860000Y-88600000D03*
X136400000Y-88600000D03*
X138940000Y-88600000D03*
X141480000Y-88600000D03*
X144020000Y-88600000D03*
X146560000Y-88600000D03*
X149100000Y-88600000D03*
X151640000Y-88600000D03*
X154180000Y-88600000D03*
X156720000Y-88600000D03*
X159260000Y-88600000D03*
%TD*%
M02*
