%TF.GenerationSoftware,KiCad,Pcbnew,10.0.6*%
%TF.CreationDate,2026-10-09T11:19:04-06:00*%
%TF.ProjectId,STM32H7A3RGT6_Devboard,53544d33-3248-4374-9133-524754365f44,rev?*%
%TF.SameCoordinates,Original*%
%TF.FileFunction,Soldermask,Top*%
%TF.FilePolarity,Negative*%
%FSLAX46Y46*%
G04 Gerber Fmt 4.6, Leading zero omitted, Abs format (unit mm)*
G04 Created by KiCad (PCBNEW 10.0.6) date 2026-10-09 11:19:04*
%MOMM*%
%LPD*%
G01*
G04 APERTURE LIST*
G04 Aperture macros list*
%AMRoundRect*
0 Rectangle with rounded corners*
0 $1 Rounding radius*
0 $2 $3 $4 $5 $6 $7 $8 $9 X,Y pos of 4 corners*
0 Add a 4 corners polygon primitive as box body*
4,1,4,$2,$3,$4,$5,$6,$7,$8,$9,$2,$3,0*
0 Add four circle primitives for the rounded corners*
1,1,$1+$1,$2,$3*
1,1,$1+$1,$4,$5*
1,1,$1+$1,$6,$7*
1,1,$1+$1,$8,$9*
0 Add four rect primitives between the rounded corners*
20,1,$1+$1,$2,$3,$4,$5,0*
20,1,$1+$1,$4,$5,$6,$7,0*
20,1,$1+$1,$6,$7,$8,$9,0*
20,1,$1+$1,$8,$9,$2,$3,0*%
G04 Aperture macros list end*
%ADD10RoundRect,0.200000X0.200000X0.275000X-0.200000X0.275000X-0.200000X-0.275000X0.200000X-0.275000X0*%
%ADD11R,0.900000X1.000000*%
%ADD12R,1.700000X0.550000*%
%ADD13RoundRect,0.075000X0.548008X-0.441942X-0.441942X0.548008X-0.548008X0.441942X0.441942X-0.548008X0*%
%ADD14RoundRect,0.075000X0.548008X0.441942X0.441942X0.548008X-0.548008X-0.441942X-0.441942X-0.548008X0*%
%ADD15R,1.700000X1.700000*%
%ADD16C,1.700000*%
%ADD17RoundRect,0.155000X-0.259862X0.040659X0.040659X-0.259862X0.259862X-0.040659X-0.040659X0.259862X0*%
%ADD18RoundRect,0.237500X-0.250000X-0.237500X0.250000X-0.237500X0.250000X0.237500X-0.250000X0.237500X0*%
%ADD19RoundRect,0.150000X0.512500X0.150000X-0.512500X0.150000X-0.512500X-0.150000X0.512500X-0.150000X0*%
%ADD20RoundRect,0.155000X0.259862X-0.040659X-0.040659X0.259862X-0.259862X0.040659X0.040659X-0.259862X0*%
%ADD21RoundRect,0.150000X-0.200000X0.150000X-0.200000X-0.150000X0.200000X-0.150000X0.200000X0.150000X0*%
%ADD22RoundRect,0.225000X0.225000X0.250000X-0.225000X0.250000X-0.225000X-0.250000X0.225000X-0.250000X0*%
%ADD23RoundRect,0.155000X-0.155000X0.212500X-0.155000X-0.212500X0.155000X-0.212500X0.155000X0.212500X0*%
%ADD24RoundRect,0.155000X0.155000X-0.212500X0.155000X0.212500X-0.155000X0.212500X-0.155000X-0.212500X0*%
%ADD25RoundRect,0.155000X-0.212500X-0.155000X0.212500X-0.155000X0.212500X0.155000X-0.212500X0.155000X0*%
%ADD26RoundRect,0.200000X-0.275000X0.200000X-0.275000X-0.200000X0.275000X-0.200000X0.275000X0.200000X0*%
%ADD27RoundRect,0.155000X0.212500X0.155000X-0.212500X0.155000X-0.212500X-0.155000X0.212500X-0.155000X0*%
%ADD28RoundRect,0.150000X0.587500X0.150000X-0.587500X0.150000X-0.587500X-0.150000X0.587500X-0.150000X0*%
%ADD29RoundRect,0.200000X-0.250000X-0.200000X0.250000X-0.200000X0.250000X0.200000X-0.250000X0.200000X0*%
%ADD30RoundRect,0.218750X0.256250X-0.218750X0.256250X0.218750X-0.256250X0.218750X-0.256250X-0.218750X0*%
%ADD31R,1.150000X0.600000*%
%ADD32R,1.150000X0.300000*%
%ADD33O,1.800000X1.000000*%
%ADD34O,2.200000X1.000000*%
%ADD35RoundRect,0.155000X-0.040659X-0.259862X0.259862X0.040659X0.040659X0.259862X-0.259862X-0.040659X0*%
%ADD36RoundRect,0.155000X0.040659X0.259862X-0.259862X-0.040659X-0.040659X-0.259862X0.259862X0.040659X0*%
%ADD37RoundRect,0.200000X0.275000X-0.200000X0.275000X0.200000X-0.275000X0.200000X-0.275000X-0.200000X0*%
%ADD38RoundRect,0.237500X-0.300000X-0.237500X0.300000X-0.237500X0.300000X0.237500X-0.300000X0.237500X0*%
G04 APERTURE END LIST*
D10*
%TO.C,R5*%
X104200000Y-106800000D03*
X102550000Y-106800000D03*
%TD*%
D11*
%TO.C,SW1*%
X145300000Y-100000000D03*
X141200000Y-100000000D03*
X145300000Y-98400000D03*
X141200000Y-98400000D03*
D12*
X143250000Y-100625000D03*
%TD*%
D13*
%TO.C,U1*%
X131361181Y-106664481D03*
X131714734Y-106310928D03*
X132068287Y-105957375D03*
X132421841Y-105603821D03*
X132775394Y-105250268D03*
X133128948Y-104896714D03*
X133482501Y-104543161D03*
X133836054Y-104189608D03*
X134189608Y-103836054D03*
X134543161Y-103482501D03*
X134896714Y-103128948D03*
X135250268Y-102775394D03*
X135603821Y-102421841D03*
X135957375Y-102068287D03*
X136310928Y-101714734D03*
X136664481Y-101361181D03*
D14*
X136664481Y-98638819D03*
X136310928Y-98285266D03*
X135957375Y-97931713D03*
X135603821Y-97578159D03*
X135250268Y-97224606D03*
X134896714Y-96871052D03*
X134543161Y-96517499D03*
X134189608Y-96163946D03*
X133836054Y-95810392D03*
X133482501Y-95456839D03*
X133128948Y-95103286D03*
X132775394Y-94749732D03*
X132421841Y-94396179D03*
X132068287Y-94042625D03*
X131714734Y-93689072D03*
X131361181Y-93335519D03*
D13*
X128638819Y-93335519D03*
X128285266Y-93689072D03*
X127931713Y-94042625D03*
X127578159Y-94396179D03*
X127224606Y-94749732D03*
X126871052Y-95103286D03*
X126517499Y-95456839D03*
X126163946Y-95810392D03*
X125810392Y-96163946D03*
X125456839Y-96517499D03*
X125103286Y-96871052D03*
X124749732Y-97224606D03*
X124396179Y-97578159D03*
X124042625Y-97931713D03*
X123689072Y-98285266D03*
X123335519Y-98638819D03*
D14*
X123335519Y-101361181D03*
X123689072Y-101714734D03*
X124042625Y-102068287D03*
X124396179Y-102421841D03*
X124749732Y-102775394D03*
X125103286Y-103128948D03*
X125456839Y-103482501D03*
X125810392Y-103836054D03*
X126163946Y-104189608D03*
X126517499Y-104543161D03*
X126871052Y-104896714D03*
X127224606Y-105250268D03*
X127578159Y-105603821D03*
X127931713Y-105957375D03*
X128285266Y-106310928D03*
X128638819Y-106664481D03*
%TD*%
D15*
%TO.C,J2*%
X111980000Y-100400000D03*
D16*
X114520000Y-100400000D03*
X117060000Y-100400000D03*
X119600000Y-100400000D03*
%TD*%
D17*
%TO.C,C3*%
X130800000Y-107400000D03*
X131602566Y-108202566D03*
%TD*%
D18*
%TO.C,R6*%
X105075000Y-92100000D03*
X106900000Y-92100000D03*
%TD*%
%TO.C,R3*%
X108375000Y-106800000D03*
X110200000Y-106800000D03*
%TD*%
D19*
%TO.C,U3*%
X107437500Y-100950000D03*
X107437500Y-100000000D03*
X107437500Y-99050000D03*
X105162500Y-99050000D03*
X105162500Y-100000000D03*
X105162500Y-100950000D03*
%TD*%
D20*
%TO.C,C4*%
X122600000Y-99200000D03*
X121797434Y-98397434D03*
%TD*%
D21*
%TO.C,D1*%
X104700000Y-97600000D03*
X104700000Y-96200000D03*
%TD*%
D22*
%TO.C,C8*%
X118600000Y-97900000D03*
X117050000Y-97900000D03*
%TD*%
D23*
%TO.C,C14*%
X140400000Y-107000000D03*
X140400000Y-108135000D03*
%TD*%
D24*
%TO.C,C13*%
X136300000Y-108100000D03*
X136300000Y-106965000D03*
%TD*%
D25*
%TO.C,C9*%
X137200000Y-103250000D03*
X138335000Y-103250000D03*
%TD*%
D26*
%TO.C,R4*%
X146800000Y-98350000D03*
X146800000Y-100000000D03*
%TD*%
D27*
%TO.C,C1*%
X121600000Y-97200000D03*
X120465000Y-97200000D03*
%TD*%
D28*
%TO.C,U2*%
X109187500Y-97700000D03*
X109187500Y-95800000D03*
X107312500Y-96750000D03*
%TD*%
D29*
%TO.C,Y1*%
X137700000Y-108100000D03*
X139100000Y-108100000D03*
X139100000Y-107000000D03*
X137700000Y-107000000D03*
%TD*%
D17*
%TO.C,C6*%
X137100000Y-96800000D03*
X137902566Y-97602566D03*
%TD*%
D30*
%TO.C,D3*%
X103500000Y-93675000D03*
X103500000Y-92100000D03*
%TD*%
D31*
%TO.C,J1*%
X103000000Y-96800000D03*
X103000000Y-97600000D03*
D32*
X103000000Y-98750000D03*
X103000000Y-99750000D03*
X103000000Y-100250000D03*
X103000000Y-101250000D03*
D31*
X103000000Y-102400000D03*
X103000000Y-103200000D03*
X103000000Y-103200000D03*
X103000000Y-102400000D03*
D32*
X103000000Y-101750000D03*
X103000000Y-100750000D03*
X103000000Y-99250000D03*
X103000000Y-98250000D03*
D31*
X103000000Y-97600000D03*
X103000000Y-96800000D03*
D33*
X102435000Y-95670000D03*
D34*
X98425000Y-95675000D03*
D33*
X102435000Y-104320000D03*
D34*
X98430000Y-104320000D03*
%TD*%
D35*
%TO.C,C5*%
X130800000Y-92600000D03*
X131602566Y-91797434D03*
%TD*%
D36*
%TO.C,C7*%
X129200000Y-107400000D03*
X128397434Y-108202566D03*
%TD*%
D30*
%TO.C,D2*%
X106900000Y-108300000D03*
X106900000Y-106725000D03*
%TD*%
D24*
%TO.C,C11*%
X106800000Y-95600000D03*
X106800000Y-94465000D03*
%TD*%
D23*
%TO.C,C12*%
X110700000Y-95800000D03*
X110700000Y-96935000D03*
%TD*%
D26*
%TO.C,R1*%
X99900000Y-92350000D03*
X99900000Y-94000000D03*
%TD*%
D37*
%TO.C,R2*%
X99900000Y-107650000D03*
X99900000Y-106000000D03*
%TD*%
D11*
%TO.C,SW2*%
X108850000Y-105000000D03*
X104750000Y-105000000D03*
X108850000Y-103400000D03*
X104750000Y-103400000D03*
D12*
X106800000Y-105625000D03*
%TD*%
D25*
%TO.C,C2*%
X139700000Y-95600000D03*
X140835000Y-95600000D03*
%TD*%
D38*
%TO.C,C15*%
X148437500Y-100000000D03*
X150162500Y-100000000D03*
%TD*%
D15*
%TO.C,J4*%
X98300000Y-111400000D03*
D16*
X100840000Y-111400000D03*
X103380000Y-111400000D03*
X105920000Y-111400000D03*
X108460000Y-111400000D03*
X111000000Y-111400000D03*
X113540000Y-111400000D03*
X116080000Y-111400000D03*
X118620000Y-111400000D03*
X121160000Y-111400000D03*
X123700000Y-111400000D03*
X126240000Y-111400000D03*
X128780000Y-111400000D03*
X131320000Y-111400000D03*
X133860000Y-111400000D03*
X136400000Y-111400000D03*
X138940000Y-111400000D03*
X141480000Y-111400000D03*
X144020000Y-111400000D03*
X146560000Y-111400000D03*
X149100000Y-111400000D03*
X151640000Y-111400000D03*
X154180000Y-111400000D03*
X156720000Y-111400000D03*
D15*
X159260000Y-111400000D03*
%TD*%
%TO.C,J3*%
X98300000Y-88600000D03*
D16*
X100840000Y-88600000D03*
X103380000Y-88600000D03*
X105920000Y-88600000D03*
X108460000Y-88600000D03*
X111000000Y-88600000D03*
X113540000Y-88600000D03*
X116080000Y-88600000D03*
X118620000Y-88600000D03*
X121160000Y-88600000D03*
X123700000Y-88600000D03*
X126240000Y-88600000D03*
X128780000Y-88600000D03*
X131320000Y-88600000D03*
X133860000Y-88600000D03*
X136400000Y-88600000D03*
X138940000Y-88600000D03*
X141480000Y-88600000D03*
X144020000Y-88600000D03*
X146560000Y-88600000D03*
X149100000Y-88600000D03*
X151640000Y-88600000D03*
X154180000Y-88600000D03*
X156720000Y-88600000D03*
X159260000Y-88600000D03*
%TD*%
M02*
